<svg xmlns="http://www.w3.org/2000/svg" version="1.0" viewBox="0 0 675 675">
  <path fill="currentColor" d="M313.7 1.4c-.4 1-3.5 1.6-11.4 2-13.1.8-35 4.5-47.7 8.2-2.6.8-5.7 1.4-6.8 1.4-1.1 0-2.9.5-4.1 1.2-1.2.6-3.8 1.5-5.7 1.9-4.3.9-9.6 2.7-13.2 4.5-1.4.8-3.3 1.4-4.2 1.4-.8 0-3.2.7-5.3 1.6-2.1.9-5.1 2.3-6.8 2.9-10.8 4.6-29.3 13.5-37 18-3.3 1.9-6.9 3.9-8 4.5-1.1.6-3.3 1.9-5 3-1.6 1.1-3.7 2.3-4.5 2.7-.8.3-3.1 1.9-5.1 3.5-2 1.5-4.2 2.8-4.8 2.8-.6 0-1.1.4-1.1.9s-1.9 2-4.3 3.4c-2.3 1.4-5.4 3.6-6.7 4.9-1.4 1.3-5.4 4.6-9 7.3-3.6 2.6-14.1 12.5-23.5 22C81.7 117.4 79.6 119.7 74 127c-1.9 2.5-4 5.2-4.7 6-.8.8-4.3 5.5-7.8 10.5-3.5 4.9-6.9 9.5-7.5 10.2-.5.7-1 1.5-1 1.9 0 .3-1.3 2.5-2.8 4.8-1.5 2.2-3.1 4.8-3.5 5.6-.4.8-2.3 4.2-4.1 7.5-1.9 3.3-5 9.4-7.1 13.5-2 4.1-4.1 8.2-4.6 9-.5.8-1.2 2.2-1.5 3-.6 1.6-2.8 6.7-5 11.5-.7 1.6-1.6 4.2-2 5.8-.3 1.5-1 3-1.5 3.3-.5.3-.9 1.4-.9 2.6 0 1.1-.6 3.2-1.4 4.6-.7 1.5-2.1 5.4-3.1 8.7-.9 3.3-2.3 7.5-3.1 9.3-.8 1.8-1.4 4.1-1.4 5.1s-.6 4.1-1.4 6.7C3.4 278.2 0 307.1 0 338.5c0 31.4 3.4 60.7 9.6 81.9.8 2.6 1.4 5.7 1.4 6.7s.6 3.3 1.4 5.1c.8 1.8 2.2 6 3.2 9.3.9 3.3 2.3 7.4 3.1 9.2.7 1.7 1.3 3.8 1.3 4.6 0 .9.4 1.8.9 2.1.5.3 1.2 1.8 1.5 3.3.4 1.6 1.4 4.4 2.3 6.3.9 1.9 2.3 5.1 3.1 7 .8 1.9 1.9 4.2 2.4 5 .4.8 1.1 2.2 1.4 3 1 2.6 7.9 16.2 11 21.8 3.4 6.3 4.1 7.4 7.7 12.9 1.5 2.4 2.7 4.5 2.7 4.9 0 .3 2 3.1 4.3 6.2 2.4 3.1 5.6 7.6 7 9.9 1.5 2.3 3.5 5 4.5 6s3.3 3.8 5.2 6.3c5.6 7.4 7.8 9.7 24.5 26.5 16.8 16.7 19.1 18.9 26.5 24.5 2.5 1.9 5.2 4 6 4.7 2.3 2 18 13.3 18.4 13.3.3 0 3.3 1.9 6.8 4.3s7 4.6 7.8 5c.8.4 4.2 2.3 7.5 4.1 3.3 1.9 9.4 5 13.5 7.1 4.1 2 8.2 4.1 9 4.6.8.5 2.2 1.2 3 1.5.8.3 3.1 1.2 5 2.1 1.9.8 4.9 2.1 6.5 2.8 1.7.6 4.6 1.9 6.5 2.7 1.9.9 5 1.9 6.7 2.2 1.8.4 3.5 1.2 3.8 1.7.4.5 1.5.9 2.5.9 1.1 0 3.4.6 5.2 1.4 7.3 3 31.6 9.1 42.3 10.6 3.3.4 8 1.2 10.5 1.8 7.6 1.8 24.3 2.7 50.5 2.7 43.2 0 62.4-2.8 104-15.3 2.8-.8 6.2-2.1 7.7-2.8 1.4-.8 3.3-1.4 4.2-1.4.8 0 3.2-.7 5.3-1.6 2.1-.9 5.3-2.3 7-3.1 8.9-3.8 10.9-4.7 12.3-5.5.8-.4 2.2-1.1 3-1.4 3.1-1.3 15.7-7.7 21.5-11 3.3-1.8 6.7-3.7 7.5-4.1.8-.4 4.3-2.6 7.8-5s6.5-4.3 6.8-4.3c.3 0 4.1-2.7 8.4-6 4.3-3.3 8.2-6 8.6-6 .4 0 1.3-.8 2-1.8.9-1.2 1.7-1.4 2.9-.7 1.4.9 1.6 4.5 1.5 32.7-.1 35.5.3 37.8 5.9 37.8 6.1 0 6.1.3 6.1-43v-39.3l14.8-15.1c8.1-8.3 15.8-16.2 17.2-17.7 3.7-3.9 11.9-14.3 16.8-21.2 2.3-3.3 4.5-6.3 5-6.6.9-.8 3-4 4.2-6.9.5-1.2 1.4-2.2 1.9-2.2s1.1-.8 1.5-1.7c.3-1 1.5-3.2 2.6-4.8 1.1-1.7 2.4-3.9 3-5 .6-1.1 2.6-4.7 4.5-8s5.1-9.4 7.1-13.5c1.9-4.1 4-8.2 4.5-9 .5-.8 1.2-2.2 1.5-3 .9-2.4 3.5-8.3 5-11.3.8-1.6 1.4-3.6 1.4-4.6 0-.9.7-2.6 1.5-3.7.8-1 1.5-2.7 1.5-3.7 0-1.1.6-3.1 1.4-4.5.7-1.5 2.1-5.4 3.1-8.7.9-3.3 2.3-7.5 3.1-9.3.8-1.8 1.4-4.1 1.4-5.1s.6-4.1 1.4-6.7c3.6-12.4 7.4-34.4 8.1-46.9.4-7.1 1-10.3 2-11.1 2.2-1.6 2.2-45.9.1-46.7-1-.4-1.6-3.5-2-11.4-.8-13.4-4.8-36.7-8.2-47.3-.8-2.5-1.4-5.5-1.4-6.7 0-1.2-.6-3.7-1.4-5.5-.8-1.8-2.2-6-3.2-9.3-.9-3.3-2.3-7.4-3.1-9.2-.7-1.7-1.3-3.8-1.3-4.6 0-.9-.4-1.8-.9-2.1-.5-.3-1.2-1.8-1.5-3.3-.4-1.6-1.3-4.2-2-5.8-.8-1.7-2.2-4.8-3.1-7-1-2.2-2.2-4.7-2.7-5.5-.4-.8-1.1-2.2-1.4-3-1.3-3.2-7.7-15.8-10.9-21.5-1.9-3.3-3.7-6.7-4.2-7.5-.4-.8-2.6-4.3-5-7.8s-4.3-6.5-4.3-6.8c0-.4-11.3-16.1-13.3-18.4-.7-.8-2.8-3.5-4.7-6-5.6-7.3-7.7-9.6-25.5-27.5-9.3-9.5-19.7-19.2-23-21.7-3.3-2.5-7.3-5.8-9-7.2-1.6-1.5-4.6-3.6-6.5-4.8-1.9-1.2-6-4-9-6.3s-6.2-4.5-7-4.8c-.8-.4-2.8-1.6-4.5-2.7-1.6-1.1-3.9-2.4-5-3-1.1-.6-4.7-2.6-8-4.5S490.8 38.7 485 36c-9.9-4.8-12.4-6-20.3-9.3-1.7-.8-4.9-2.2-7-3.1-2.1-.9-4.6-1.6-5.5-1.6-1 0-2.6-.6-3.7-1.4-1.1-.7-3.1-1.6-4.5-1.9-1.4-.3-3.8-1-5.5-1.5-2.8-1-5.5-1.8-19.7-5.6-5-1.4-13.5-3.2-25.8-5.6-3-.6-11-1.5-17.7-2-13.1-.9-16.7-1.6-15.8-3.1.4-.5-8.5-.9-22.3-.9-18.8 0-23.1.3-23.5 1.4zm4.7 19.2c7.9 3.9 9.8 5.1 10.7 6.6.5.7.9 8.2.9 16.5V59l-3.7 2.3c-2.1 1.3-4.5 2.7-5.3 3-.8.4-2.8 1.6-4.5 2.7-1.6 1.1-3.7 2.3-4.5 2.7-.8.3-3.2 1.7-5.2 3-3.5 2.1-3.9 2.2-7 .7-1.8-.8-4.6-2.3-6.3-3.4-1.6-1-5-3-7.5-4.3-2.5-1.4-6-3.3-7.8-4.3l-3.2-1.9.2-16.5c.3-15.7.4-16.5 2.4-17.5 1.2-.6 2.8-1.6 3.5-2.2 3.3-2.5 9.7-3.6 30.3-5.2 1.1 0 4.2 1.1 7 2.5zm66.6.1c3 .8 6.1 2 6.9 2.6.7.6 2.3 1.6 3.5 2.2 2 1 2.1 1.8 2.4 17.5l.2 16.5-3.2 1.9c-1.8 1-5.3 2.9-7.8 4.3-2.5 1.3-5.8 3.3-7.5 4.3-1.6 1.1-4.5 2.6-6.3 3.4-3.1 1.5-3.5 1.4-7-.7-2-1.3-4.4-2.7-5.2-3-.8-.4-2.8-1.6-4.5-2.7-1.6-1.1-3.7-2.3-4.5-2.7-.8-.3-3.2-1.7-5.2-3L343 59V43.7c0-8.3.4-15.8.9-16.5.9-1.5 2.7-2.6 10.4-6.5 4.5-2.3 5.7-2.5 15-2 5.6.2 12.7 1.1 15.7 2zm-124.1 6.7c.8.9 1.1 6.2.9 16.7l-.3 15.2-3 1.9c-1.6 1-3.9 2.2-5 2.8-1.1.6-3.6 2-5.5 3.1-1.9 1.2-5.9 3.4-8.7 5L234 75l-3.2-2c-1.8-1.1-4-2.3-4.8-2.7-3.9-1.8-18.6-10.7-19.2-11.7-1.1-1.6-.9-11.5.2-13.7.6-1 1.9-1.9 3-1.9 1 0 2.1-.4 2.5-1 .3-.5 2-1.4 3.8-1.9 1.8-.5 5.7-1.9 8.7-3.1 3-1.2 6.9-2.5 8.5-3 1.7-.4 4.1-1.2 5.5-1.8 1.4-.5 5.2-1.8 8.5-2.7 3.3-.9 7.1-2 8.5-2.5 3.6-1.1 3.6-1.1 4.9.4zm159.9.7c2.3.5 5.1 1.3 6.1 1.9 1.1.5 2.8 1 3.8 1s3.1.7 4.7 1.5c1.5.8 3.4 1.5 4.2 1.5.7 0 2.8.6 4.6 1.4 1.8.8 5.3 2.2 7.8 3.1 2.5.9 5.8 2.3 7.3 3.1 1.6.8 3.5 1.4 4.2 1.4 2.2 0 3.5 3.4 3.5 9.2 0 6-.3 6.6-4.5 9.3-3.1 2-3.5 2.2-12 6.9-2.7 1.5-6.5 3.6-8.3 4.7L439 75l-5.3-2.9c-2.8-1.6-6.8-3.8-8.7-5-1.9-1.1-4.4-2.5-5.5-3.1-1.1-.6-3.3-1.8-5-2.8l-3-1.9-.3-15.2c-.3-15.9.4-18.9 3.7-17.5.9.3 3.5 1 5.9 1.5zM194 54.5c0 3.5-1 5.5-3.4 6.6-1.1.5-4.3 2.3-7.1 4-2.7 1.6-6.3 3.7-8 4.5-1.6.8-4.4 2.3-6.2 3.4-3 1.8-3.4 1.8-6.3.4-1.7-.9-2.9-2.1-2.7-2.7.4-1.3 8.6-7.1 13.2-9.3 1.7-.8 4.4-2.3 6-3.4 5.1-3.2 12.9-6.9 13.7-6.4.5.3.8 1.6.8 2.9zm293-.2c1.9 1 4.9 2.6 6.5 3.7 1.7 1.1 4.1 2.5 5.5 3.1 1.4.5 3.9 2.1 5.7 3.5 1.7 1.3 3.5 2.4 3.9 2.4 1 0 4.4 3.1 4.4 4.1 0 .4-1.4 1.4-3.1 2.3-2.8 1.4-3.3 1.3-6.2-.4-1.8-1.1-4.5-2.6-6.2-3.4-1.6-.8-5.2-2.9-8-4.5-2.7-1.7-6-3.5-7.1-4-2.3-1-3.4-3.1-3.4-6.5 0-4 .3-4 8-.3zM274 73.4c2 1.2 4.5 2.7 5.5 3.4 1.1.6 2.9 1.7 4 2.2 1.1.6 4.3 2.3 7 3.9l5 2.9.3 15.6.3 15.5-5 2.6c-2.9 1.4-6.7 2.5-9.1 2.5-2.2 0-4 .4-4 1 0 .5.5 1 1 1 .6 0 1 .5 1 1 0 .6-2 .8-5.5.4-4.5-.6-5.9-.4-7.5 1.1-1.6 1.4-3 1.7-7.1 1.2-2.8-.4-5.8-1.2-6.6-1.9-1.7-1.4-4.9-3.3-7.8-4.7-4.8-2.1-5-3.6-4.5-33.3 0-1.1 3-3.5 8.2-6.5 4.6-2.7 9.2-5.3 10.3-6 1.1-.7 3-1.7 4.2-2.2 1.1-.5 2.4-1.4 2.7-2 .8-1.2 2.7-.6 7.6 2.3zm72.5 2.6c1.7 1 5.3 3.1 8.1 4.6 10 5.3 9.6 4.4 9.8 19 .2 7.1.1 13.7-.2 14.6-.4 1.7-2.6 1.8-27.8 1.8-25.4 0-27.4-.1-27.5-1.8V99.5c0-12.3.1-13.1 2.2-14.5 2.3-1.6 12-7.2 15.4-9 1.1-.6 3.8-2.1 6-3.4l3.9-2.4 3.6 2c1.9 1.1 4.9 2.8 6.5 3.8zm-140-2c5.6 3 11.5 6.5 15 8.8 1.1.7 2.7 1.5 3.7 1.8 2.4.8 2.8 3.4 2.8 18.6 0 15.5 0 15.6-8.1 19.7-2.4 1.2-5.7 3.1-7.4 4.2-1.6 1-4 2.3-5.2 2.8-1.1.5-2.4 1.5-2.8 2-.8 1.4-7.8 1.4-9.2 0-1.1-1.1-3.6-2.6-7.8-4.9-1.1-.6-3.3-1.9-5-3-1.6-1.1-4.1-2.5-5.5-3-1.3-.6-2.8-1.7-3.2-2.3-.4-.7-.8-8.2-.8-16.8V86.2l2.8-1.8c3.7-2.6 6.2-4 9.7-5.8 1.7-.8 5.3-2.8 8-4.5 2.8-1.6 5.6-3 6.2-3 .7-.1 3.7 1.2 6.8 2.9zm203-.9c1.7 1 3.7 2.2 4.5 2.6 7.1 3.4 18 10.7 18 12.1.5 29.6.3 31.2-4.5 33.3-2.9 1.4-6.1 3.3-7.8 4.7-.8.7-3.8 1.5-6.6 1.9-4.1.5-5.5.2-7.1-1.2-1.6-1.5-3-1.7-7.5-1.1-3.5.4-5.5.2-5.5-.4 0-.5.5-1 1-1 .6 0 1-.5 1-1 0-.6-1.8-1-4-1-2.4 0-6.2-1.1-9.1-2.5l-5-2.6.3-15.5.3-15.6 5-2.9c2.8-1.6 5.9-3.3 7-3.9 3.7-1.9 11.3-6.5 12.1-7.3 1.3-1.2 4.8-.6 7.9 1.4zm69.7.9c2.9 1.7 6.7 3.8 8.3 4.6 3.5 1.8 6 3.2 9.8 5.8l2.7 1.8v15.7c0 8.6-.4 16.1-.8 16.8-.4.6-1.9 1.7-3.2 2.3-1.4.5-3.8 1.9-5.5 3-1.6 1.1-3.9 2.4-5 3-4.2 2.3-6.7 3.8-7.8 4.9-1.4 1.4-8.4 1.4-9.2 0-.4-.5-1.7-1.5-2.8-2-1.2-.5-3.5-1.8-5.2-2.8-1.6-1.1-5-3-7.4-4.2-8.1-4.1-8.1-4.2-8.1-19.7 0-15.2.4-17.8 2.8-18.6 1-.3 2.4-1 3.2-1.5.8-.6 5.1-3.1 9.5-5.6 4.4-2.6 8.7-5 9.5-5.5 2.4-1.4 3.6-1.2 9.2 2zM150 80.5c.7.8 1.8 1.5 2.4 1.5.6 0 2.6 1.3 4.4 2.9l3.2 3v14.3c-.1 9.7-.5 14.8-1.3 15.9-.7.9-3.5 2.8-6.2 4.3-2.8 1.5-6.3 3.6-8 4.6-10.5 6.5-14.1 7.5-17.4 4.6-.9-.7-2.3-1.6-3.1-2-.8-.3-2.8-1.5-4.5-2.5-1.6-1.1-5.4-3.2-8.3-4.7-8.8-4.6-8.8-4.4 2.4-15.3C124.3 96.5 145.5 79 147.5 79c.7 0 1.8.7 2.5 1.5zm388.1 7.7c6.3 5 15.9 13.5 21.3 18.9 11.2 10.9 11.2 10.7 2.4 15.3-2.9 1.5-6.6 3.6-8.3 4.7-1.6 1-3.7 2.2-4.5 2.5-.8.4-2.2 1.3-3.1 2-3.3 2.9-6.9 1.9-17.4-4.6-1.6-1-5.2-3.1-8-4.6-2.7-1.5-5.5-3.4-6.2-4.3-.8-1.1-1.2-6.2-1.3-15.9V87.9l3.2-3c1.8-1.6 3.8-2.9 4.4-2.9.6 0 1.7-.7 2.4-1.5s1.8-1.5 2.5-1.5 6.4 4.1 12.6 9.2zM323 122c0 1.3-1.1 1.3-3 0-1.2-.8-1.1-1 .8-1 1.2 0 2.2.4 2.2 1zm30 0c-1.9 1.3-3 1.3-3 0 0-.6 1-1 2.3-1 1.8 0 1.9.2.7 1zm-24.6 2.5c.8.8 2.2 1.5 3.1 1.5.8 0 1.8.7 2.1 1.5.4.8 1.6 1.5 2.9 1.5 1.3 0 2.5-.7 2.9-1.5.3-.8 1.3-1.5 2.1-1.5.9 0 2.3-.7 3.1-1.5.9-.8 2.2-1.5 3-1.5.8 0 1.4.7 1.4 1.5 0 .9-.9 1.5-2.4 1.5-1.3 0-2.6.7-3 1.5-.3.8-1.4 1.5-2.5 1.5-1 0-2.1.7-2.5 1.5-.3.8-1.2 1.5-2.1 1.5-.9 0-1.8-.7-2.1-1.5-.4-.8-1.5-1.5-2.5-1.5-1.1 0-2.2-.7-2.5-1.5-.4-.8-1.7-1.5-3-1.5-1.5 0-2.4-.6-2.4-1.5 0-.8.6-1.5 1.4-1.5.8 0 2.1.7 3 1.5zm-58.1 6c.1.5-.6 1.1-1.5 1.3-1.1.2-1.8-.3-1.8-1.3 0-1.7 3-1.8 3.3 0zm135.7 0c0 .8-.6 1.5-1.4 1.5-1.7 0-2.8-1.4-1.9-2.4 1.2-1.2 3.3-.6 3.3.9zm-302.2 2.2c2.6 1.6 5.6 3.3 6.7 4 1.1.7 2.9 1.7 4 2.3 1.1.5 3.8 2.1 6 3.4l4 2.4.3 16.2c.3 17.9.6 16.9-6.3 20.6-8.5 4.6-12.4 6.8-15 8.5-4.8 3-5.7 3.3-7.4 2.1-.9-.7-2.9-1.8-4.6-2.6-1.6-.8-5.2-2.9-8-4.5-2.7-1.7-5.9-3.5-7-4-1.1-.6-3.1-1.9-4.4-2.9-2.2-1.8-2.3-2.4-1.9-11.4.3-8.7.6-9.8 3.4-13.4 1.7-2.1 3.5-4.6 4-5.5 2.8-5 12.1-14.9 14-14.9.6 0 1.7-.7 2.4-1.5 1.8-2.2 4.6-1.8 9.8 1.2zm65.7-1.6c.4.5 1.7 1.5 2.8 2 1.2.5 3.6 1.8 5.2 2.8 1.7 1.1 5.3 3.2 8 4.6 8.5 4.6 8.5 4.7 8.5 14.9-.1 5.2-.6 10-1.3 11.3-.7 1.2-3.8 4.5-7 7.4-4.2 3.8-5.6 5.7-5.2 7 .5 1.4.2 1.7-1 1.3-1-.4-2.4.1-3.5 1.3-1 1.1-3.9 3.7-6.4 5.8-4.3 3.5-4.8 3.7-6.4 2.1-1-.9-2.1-1.6-2.5-1.6-.4 0-4.1-2-8.3-4.5-4.1-2.5-7.8-4.5-8-4.5-.3 0-1.8-1-3.4-2.2l-3-2.2v-15.1c0-16.4.1-16.9 6-19.4 1.4-.6 3.9-2 5.5-3.1 1.7-1.1 3.9-2.4 5-3 4.2-2.3 6.7-3.8 7.8-4.9 1.4-1.4 6.4-1.4 7.2 0zm69.5 1.1c3.2 2.3 4 4.8 1.5 4.8-.9 0-1.8.7-2.1 1.5-.4.8-1.6 1.5-2.9 1.5-1.3 0-2.5.7-2.9 1.5-.3.8-1.7 1.5-3.2 1.5-1.7 0-2.8.6-3.1 1.9-.3 1.3-1.1 1.7-2.4 1.4-1.1-.3-2.1.1-2.5 1.1-.3.9-1.4 1.6-2.3 1.6-.9 0-3.2 1.4-5 3.1-4.7 4.2-7.5 3.7-7.9-1.5-.4-4.1 1.2-6.2 6.3-8.7 1.1-.5 3.4-1.8 5-2.9 1.7-1.1 3.9-2.4 5-2.9 1.1-.6 3.8-2.1 6-3.5 4.9-3.1 6.8-3.2 10.5-.4zm205.9.6c2.5 1.6 5.3 3.1 6.1 3.5.8.4 2.9 1.6 4.5 2.7 1.7 1.1 3.9 2.4 5 2.9 5.1 2.5 6.7 4.6 6.3 8.7-.2 3.3-.7 4-2.7 4.2-1.5.2-2.8-.3-3.3-1.2-.5-.9-1.5-1.6-2.2-1.6-.8 0-1.6-.7-2-1.5-.3-.8-1.5-1.5-2.6-1.5s-2-.4-2-.9c0-1-7.9-5.1-9.7-5.1-.6 0-1.3-.7-1.7-1.5-.3-.8-1.4-1.5-2.4-1.5-1.1 0-2.5-.7-3.2-1.5-.7-.8-1.9-1.5-2.6-1.5-2.3 0-1.6-2.3 1.4-4.7 3.6-2.9 5.6-2.9 11.1.5zm65.8-1.7c1.1 1.1 3.6 2.6 7.8 4.9 1.1.6 3.4 1.9 5 3 1.7 1.1 4.1 2.5 5.5 3.1 5.9 2.5 6 3 6 19.4v15.1l-3 2.2c-1.6 1.2-3.1 2.2-3.4 2.2-.2 0-3.9 2-8 4.5-4.2 2.5-7.9 4.5-8.3 4.5-.4 0-1.5.7-2.5 1.6-1.6 1.6-2.1 1.4-6.5-2.2-2.6-2.2-5.6-4.7-6.6-5.7s-2.5-1.6-3.3-1.3c-1.1.4-1.4.1-.9-1.3.4-1.3-1-3.2-5.2-7-3.2-2.9-6.3-6.2-7-7.4-.7-1.3-1.2-6.1-1.3-11.3 0-10.3 0-10.3 8.8-15 5.6-3.1 7.4-4.1 13.7-7.9 4.4-2.6 7.5-3.1 9.2-1.4zm68.3.4c.7.8 1.8 1.5 2.4 1.5 2.2 0 6.6 5 17.4 19.5 3.6 4.8 3.7 5.4 4.1 14.4.3 8.9.2 9.5-2 11.3-1.3 1-3.3 2.3-4.4 2.9-1.1.5-4.2 2.3-7 4-2.7 1.6-6.3 3.7-8 4.5-1.6.8-3.7 1.9-4.6 2.6-1.7 1.2-2.7.9-7.4-2.2-1.6-1.1-3.7-2.3-4.6-2.7-.8-.5-5-2.8-9.2-5.2l-7.7-4.5.2-16.4.3-16.4 4-2.4c2.2-1.3 4.9-2.8 6-3.4 1.1-.5 2.7-1.4 3.5-2 11.1-7.1 14.7-8.3 17-5.5zM304 133c0 .5.6 1 1.4 1 1.8 0 3 1.7 1.7 2.4-.5.4-1.6-.1-2.4-.9-.9-.8-2-1.5-2.6-1.5-.6 0-1.1-.5-1.1-1 0-.6.7-1 1.5-1s1.5.4 1.5 1zm68 0c0 .5.8 1 1.9 1 1 0 2.4.7 3.1 1.5.7.8 2.1 1.5 3.1 1.5 1.1 0 1.9.7 1.9 1.5 0 1.8-2.4 2-4.2.2-.7-.7-2-1.6-2.8-2-.8-.4-2.3-1.2-3.2-1.9-1.5-1-2-.9-3.1.6-1 1.4-2 1.7-3.3 1.1-1.7-.7-1.6-.9.9-1.8 1.5-.6 2.7-1.4 2.7-1.9 0-.4.7-.8 1.5-.8s1.5.4 1.5 1zm-72 2c0 .6-.8 1.4-1.7 1.7-1 .4-2.4 1.3-3.1 2-1.8 1.8-4.2 1.6-4.2-.2 0-.9.9-1.5 2.4-1.5 1.3 0 2.6-.7 3-1.5.6-1.7 3.6-2.1 3.6-.5zm-54.3 3.4c.4.8 1.7 1.5 2.7 1.7 2.3.5 3.4 2.9 1.3 2.9-.9 0-2.2-.6-2.9-1.3-.7-.7-2.1-1.6-3.1-2-1-.4-1.5-1.1-1.2-1.7.9-1.4 2.3-1.2 3.2.4zm68.3.1c.7.8 2.1 1.5 3.1 1.5 1.1 0 1.9.7 1.9 1.6 0 1.1-.6 1.4-2.2.8-1.3-.4-2.5-1-2.8-1.4-.3-.3-1.3-.9-2.2-1.3-1-.3-1.8-1.1-1.8-1.7 0-1.5 2.6-1.2 4 .5zm49-.5c0 .6-.8 1.4-1.7 1.7-1 .4-2 1-2.3 1.3-.3.4-1.5 1-2.7 1.4-1.7.6-2.3.3-2.3-.8 0-.9.8-1.6 1.9-1.6 1 0 2.4-.7 3.1-1.5 1.4-1.7 4-2 4-.5zm67.2 1.2c-.6.6-1.6.7-2.2.3-.9-.6-.9-.9.1-1.6 1.7-1 3.4 0 2.1 1.3zm-140.4 2c-.3.7-1.4 1.4-2.6 1.6-1.2.2-2.2 1-2.2 1.8 0 1-.8 1.4-2.2 1.2-2.7-.4-2.7-2.1-.1-2.7 1-.2 2.2-.9 2.6-1.7 1-1.8 5-1.9 4.5-.2zm97.9.1c.4.7 1.9 1.8 3.3 2.4 2.3 1 2.4 1.1.6 1.9-1.3.5-2.3.2-3-.8-.6-.9-2-1.7-3-1.9-1.1-.2-2.1-1-2.4-1.7-.5-1.6 3.5-1.6 4.5.1zm38.3-.3c0 1.2-2.8 2.5-3.6 1.7-.9-.9.6-2.7 2.2-2.7.8 0 1.4.5 1.4 1zm-170.2 3.8c.3.9-.2 1.3-1.4 1-.9-.1-1.9-.9-2.2-1.6-.3-.9.2-1.3 1.4-1 .9.1 1.9.9 2.2 1.6zm68.8-.3c.4.8 1.2 1.5 2 1.5 1.1 0 1.4 2.9 1.4 15.5 0 12.8-.2 15.5-1.4 15.5-1.1 0-1.4-1.1-1.3-3.8.1-2 0-8.9-.1-15.3-.2-11.5-.2-11.7-2.7-12.3-1.4-.4-2.5-1.1-2.5-1.6 0-1.6 4-1.1 4.6.5zm27.9-.5c.3.5-.6 1.2-2 1.6l-2.5.6v15.4c0 13-.2 15.4-1.5 15.4s-1.5-2.4-1.5-15.5c0-12.6.3-15.5 1.4-15.5.8 0 1.6-.7 2-1.5.6-1.7 3.2-2 4.1-.5zm68.3.2c-.7 1.9-3.8 2.2-3.8.4 0-1 .9-1.6 2.1-1.6 1.2 0 1.9.5 1.7 1.2zm-162.2 17.3c-.1 11-.4 15.5-1.2 15.5-.7 0-1.4.7-1.8 1.5-.6 1.6-4.6 2.1-4.6.6 0-.5 1.1-1.2 2.4-1.5 3.2-.8 3.7-3.4 3.6-18-.1-14.5-.2-13.6.8-13.6.4 0 .8 7 .8 15.5zm20.6-.8.3 14.8 2.8 1.3c1.5.7 2.7 1.7 2.7 2.3 0 1.5-3 1-3.6-.6-.4-.8-1.7-1.5-3-1.5H276v-15.5c0-13 .2-15.5 1.5-15.5 1.2 0 1.5 2.5 1.7 14.7zm117.8.8c0 14.5-.1 15.5-1.9 15.5-1 0-2.4.7-3.1 1.5-1.4 1.7-4 2-4 .5 0-.6.4-1 .8-1 .5 0 1.9-.8 3-1.9 2.1-1.7 2.2-2.7 2.2-16 0-11.9.2-14.1 1.5-14.1s1.5 2.4 1.5 15.5zm19-2.3c0 14.4.5 17.8 2.5 17.8.8 0 2 .6 2.7 1.4.8.7 2.4 1.7 3.6 2 1.2.4 2.2 1.2 2.2 1.7 0 1.5-3.7 1-4.4-.6-.3-.8-1.5-1.5-2.6-1.5s-2.3-.7-2.6-1.5c-.4-.8-1.2-1.5-1.8-1.5-1 0-1.2-3.9-1.2-15.5.1-8.5.4-15.5.9-15.5.4 0 .7 6 .7 13.2zm-204 7.4c0 1.4-.4 2.3-1 1.9-.5-.3-1-1.5-1-2.6 0-1 .5-1.9 1-1.9.6 0 1 1.2 1 2.6zm251-.6c0 1.1-.4 2-1 2-.5 0-1-.9-1-2s.5-2 1-2c.6 0 1 .9 1 2zm-251 9.5c0 .8-.4 1.5-.9 1.5-1.3 0-2.2-1.6-1.4-2.4 1.1-1.1 2.3-.6 2.3.9zm251.2 0c0 .5-.5 1.1-1.1 1.3-.6.2-1.1-.4-1.1-1.3s.5-1.5 1.1-1.3c.6.2 1.1.8 1.1 1.3zm21.3-.4c1 1.5-.1 2.3-2 1.5-.9-.3-1.3-1-1-1.6.8-1.3 2.2-1.3 3 .1zm-293 .9c-.3.5-1.1 1-1.7 1-.6 0-2 .7-3 1.7-1 .9-1.8 1.1-1.8.6 0-1.3 4-4.2 5.8-4.2.7-.1 1 .3.7.9zm26.5 3.1c4 2.1 5.2 3.9 2.5 3.9-.7 0-1.8-.6-2.2-1.4-.4-.8-1.7-1.5-2.7-1.7-1.1-.2-2.1-1-2.4-1.7-.5-1.6.1-1.5 4.8.9zm242-1.1c0 .6-1.1 1.5-2.4 2-1.3.5-2.7 1.4-3.1 1.9-.3.6-1.5 1.1-2.6 1.1-1 0-1.9.4-1.9 1 0 .5-1.1 1.2-2.4 1.6-1.4.3-2.7 1.2-3 2-.3.8-1.4 1.4-2.4 1.4s-2.3.5-3 1.2c-.9.9-1.2.9-1.2.1 0-.7-1-1.3-2.2-1.5-2.8-.4-3.6-2.8-.9-2.8 1.1 0 2.2.4 2.5.9.7 1.1 6.4-.8 8.4-2.7.7-.6 2-1.2 2.8-1.2.8 0 1.4-.4 1.4-1 0-.5 1.1-1.2 2.5-1.6 1.4-.3 2.5-1 2.5-1.4 0-.7 1.7-1.5 4.3-1.9.4 0 .7.4.7.9zm-138 1.3c-1.4.6-2.9 1.7-3.3 2.4-1 1.7-5 1.7-4.5 0 .3-.6 1.4-1.3 2.6-1.5 1.2-.2 2.2-.8 2.2-1.3s1.2-.9 2.8-.8h2.7l-2.5 1.2zm32-.4c0 .5 1 1.1 2.2 1.3 1.2.2 2.3.9 2.6 1.5.5 1.7-3.5 1.7-4.5 0-.4-.7-1.9-1.8-3.3-2.4l-2.5-1.2h2.8c1.5-.1 2.7.3 2.7.8zm-104 2.6c0 .8-.9 1.5-2 1.5-2 0-2.6-1.1-1.3-2.3 1.2-1.3 3.3-.7 3.3.8zm40.2-.1c.8.7 2.4 1.7 3.6 2 1.2.4 2.2 1.2 2.2 1.7 0 1.5-4 1-4.6-.5-.3-.8-1.7-1.7-3-2-1.4-.4-2.2-1.1-1.9-1.6.9-1.4 2.1-1.2 3.7.4zm96.8-.4c0 .5-1.1 1.2-2.4 1.6-1.4.3-2.7 1.2-3 2-.3.8-1.3 1.4-2.2 1.4-.9 0-2.2.7-2.9 1.7-.8 1.1-1.8 1.4-3.1.9-1.8-.8-1.7-.9.6-1.9 1.4-.7 3.1-1.7 3.8-2.4.7-.7 1.9-1.3 2.7-1.3.7 0 1.5-.7 1.9-1.5.6-1.6 4.6-2.1 4.6-.5zm-159.8 3.2c2 1.9 7.7 3.8 8.4 2.7.3-.5 1.4-.9 2.5-.9 2.7 0 1.9 2.4-.9 2.8-1.2.2-2.2.8-2.2 1.5 0 .8-.3.8-1.2-.1-.7-.7-2-1.2-3-1.2s-2.1-.6-2.4-1.4c-.3-.8-1.7-1.7-3-2-1.4-.4-2.2-1.1-1.9-1.6.8-1.3 2.1-1.2 3.7.2zm17.8-.2c0 1.2-2.8 2.5-3.6 1.7-.9-.9.6-2.7 2.2-2.7.8 0 1.4.5 1.4 1zm68 .5c0 .8-.7 1.5-1.5 1.5-1.6 0-2-1.2-.8-2.3 1.1-1.2 2.3-.8 2.3.8zm49.8.4c.3.8-.1 1.2-.9.9-.7-.2-1.5-1-1.7-1.7-.3-.8.1-1.2.9-.9.7.2 1.5 1 1.7 1.7zm69-.1c.3.9-.2 1.3-1.4 1-.9-.1-1.9-.9-2.2-1.6-.3-.9.2-1.3 1.4-1 .9.1 1.9.9 2.2 1.6zM300.5 187c1.8.7 1.9.8.3 1.5-2.2.9-5.1-.1-4.3-1.5.7-1.2 1.3-1.2 4 0zm7.3.2c-.5 1.6-4.8 2.4-4.8 1 0-1.1 1.7-2 3.8-2.1.8-.1 1.2.5 1 1.1zm61.3.4c1.1 1.4 1 1.5-1.1 1.2-1.3-.1-2.5-.9-2.8-1.6-.5-1.7 2.3-1.5 3.9.4zM66.2 190c1.3.6 3.7 1.9 5.3 3 1.7 1.1 4.4 2.6 6 3.4 6.9 3.5 12.1 6.7 13.3 8.3 1.3 1.8 1.8 27.6.6 30.8-.4.9-1.6 2.1-2.8 2.6-1.1.5-3.4 1.8-5.1 2.9-1.6 1.1-5.2 3.1-8 4.5-2.7 1.4-6.5 3.5-8.4 4.6-3.7 2.2-4.6 1.9-12.6-3.1-1.6-1-5.2-3.1-8-4.6C36.4 237 36 236.5 36 230.2c0-5.1 1.5-11.1 3.9-16 .4-.9 1.6-3.5 2.6-5.7 4.8-10.9 4.7-10.9 15.5-16.9 5.3-2.9 5.2-2.9 8.2-1.6zm75.5 4c4.7 2.7 8.8 5 9.1 5 .4.1 1.9 1.1 3.3 2.3l2.7 2.2-.2 16.5c-.1 15.6-.2 16.5-2.1 16.8-1.1.2-2.7 1.1-3.7 1.9-1.1 1-1.8 1.1-2.3.4-.3-.6.2-1.4 1.2-1.8 4-1.5 4.5-3.1 4.9-15.8.2-6.9.1-12.5-.2-12.5-.2 0-.9 1-1.4 2.2-1.5 3.4-3.3 6.2-4.7 7.1-.7.4-1.3 1.7-1.3 2.7 0 1.1-.4 2-.9 2-1 0-5.1 7.9-5.1 9.7 0 .6-.7 1.4-1.6 1.7-1.1.4-1.5 1.4-1.2 3 .4 1.8 0 2.6-1.5 3-1.7.4-1.9 1.1-1.4 4.1.5 3 .3 3.6-.9 3.1-.8-.3-1.7.1-2 .9-.7 1.7-5.9 2-6.9.4-.4-.5-1.7-1.5-2.8-2-2.4-1-8.9-4.8-14.9-8.6L104 236v-15.4c0-16.1.2-16.8 5-19 .8-.3 2.9-1.5 4.5-2.6 6-3.8 17.5-10 18.7-10 .6 0 4.8 2.2 9.5 5zm404.9-2.3c7.4 4 9.6 5.2 12.9 7.3 1.7 1.1 3.7 2.3 4.5 2.6 4.8 2.2 5 2.9 5 19V236l-3.7 2.3c-6.1 3.8-12.6 7.6-15 8.6-1.1.5-2.4 1.5-2.8 2-1 1.7-6.2 1.3-6.9-.5-.3-.8-1-1.3-1.5-.9-.6.3-2.5-.4-4.3-1.6l-3.3-2 3.3.6c2.7.6 3.2.4 3.2-1.3 0-1.1-.7-2.5-1.5-3.2-.8-.7-1.5-2.1-1.5-3.1s-.8-2-1.9-2.4c-1.3-.4-1.7-1.2-1.3-3 .2-1.4 0-2.5-.6-2.5-.5 0-1.5-1.4-2.1-3-.5-1.7-1.5-3-2-3-.6 0-1.1-.9-1.1-2 0-1-.6-2.3-1.2-2.7-1.5-.9-3.3-3.7-4.9-7.3-.9-2.2-1.2-2.3-2-.8-.5 1-.6 2.6 0 4 .5 1.4.8 6.1.6 10.6-.3 6.1 0 8.6 1.1 9.6 2 2.1 1.8 2.6-1.2 2.6h-2.5l.2-16.9.2-17 2.8-2c1.6-1.2 3-2.1 3.3-2.1.2 0 4.2-2.2 8.8-5 4.5-2.7 8.8-4.9 9.4-5 .6 0 3.3 1.2 6 2.7zm68.2-.1c10.8 5.9 10.9 5.9 15.7 16.9 1 2.2 2.2 4.8 2.6 5.7 2.4 4.9 3.9 10.9 3.9 16 0 6.3-.4 6.8-10.5 12.2-2.7 1.5-6.3 3.6-8 4.6-8 5-8.9 5.3-12.6 3.1-1.9-1.1-5.6-3.2-8.4-4.6-2.7-1.4-6.3-3.4-8-4.5-1.6-1.1-4-2.4-5.1-2.9-3.1-1.4-3.4-2.9-3.4-17.7 0-14.1.6-16.9 4.3-18.4 1.2-.6 4.9-2.6 8.2-4.5 3.3-1.9 6.9-4 8-4.5 1.1-.6 3.1-1.7 4.5-2.5 3.3-1.9 3.3-1.9 8.8 1.1zm-412.3.9c0 .5-1.1 1.2-2.4 1.3-1.3.2-3.1 1-3.8 1.8-.8.8-1.9 1.2-2.4.8-1.2-.7-.2-2.4 1.6-2.4.7 0 1.6-.7 1.9-1.6.6-1.7 5.1-1.6 5.1.1zm68.5 0c0 .9-.9 1.5-2.4 1.5-2.8 0-4.3-1.6-2.4-2.3 2.6-1.1 4.8-.7 4.8.8zm68.7-.2c.4.8 1.6 1.6 2.6 2 .9.3 1.7 1.1 1.7 1.7 0 1.6-3 1.2-3.6-.5-.7-1.6-7.4-2.2-7.4-.6 0 1.4-3.2 2.3-4.3 1.2-.6-.6-.1-1.2 1.6-1.6 1.4-.4 2.8-1.3 3.1-2.1.7-1.8 5.2-1.8 6.3-.1zm66.7-.7c2.6 1 1.8 2.4-1.4 2.4-2.9 0-3.8-.9-2.3-2.3.8-.9 1.7-.9 3.7-.1zm69.2.8c.3.8 1.7 1.7 3.1 2.1 1.7.4 2.2 1 1.6 1.6-1.1 1.1-4.3.2-4.3-1.2 0-1.5-5-1-6.6.6-.9.8-2.2 1.5-3.1 1.5-2.1 0-1-2.4 1.3-2.9 1-.2 2.3-.9 2.7-1.7 1-1.8 4.6-1.8 5.3 0zm-268.1 2.7c1 1.5.2 1.9-2.3 1.2-1.2-.3-1.9-.9-1.6-1.4.7-1.2 3.1-1.1 3.9.2zm56.3.1c-.6 1.8-2.8 2.1-2.8.4 0-.9.7-1.6 1.6-1.6.9 0 1.4.5 1.2 1.2zm11.1-.3c.9.6 1 1.1.2 1.5-1.3.8-3.1-.1-3.1-1.5 0-1.1 1.1-1.1 2.9 0zm137.1.6c.7.8 2.3 1.5 3.6 1.5 1.5 0 2.4.6 2.4 1.5 0 1.8-2.4 2-4.2.2-.7-.7-2.1-1.6-3-2-1-.3-1.8-1.1-1.8-1.7 0-1.5 1.6-1.2 3 .5zm-220.2 2.7c-.5 1.5-4.8 2.4-4.8 1s1.2-2.2 3.3-2.2c1 0 1.7.5 1.5 1.2zm21.8.2c.3.8 1.7 1.7 3 2 1.4.4 2.2 1.1 1.9 1.6-.9 1.4-2.1 1.2-3.7-.4-.8-.8-2.3-1.5-3.3-1.7-1-.2-2-1-2.3-1.7-.5-1.7 3.7-1.5 4.4.2zm46.2-.2c-.7 2-4.8 2.3-4.8.4 0-1.1.9-1.6 2.6-1.6 1.6 0 2.4.5 2.2 1.2zm22 .6c.3.9-.3 1.3-1.9 1-1.2-.1-2.4-.9-2.7-1.6-.3-.9.3-1.3 1.9-1 1.2.1 2.4.9 2.7 1.6zm45.2-.8c0 .6-.8 1.4-1.7 1.7-1 .4-2.4 1.3-3.1 2-.7.7-2 1.3-2.9 1.3-2.1 0-1-2.4 1.3-2.9 1-.2 2.3-.9 2.7-1.7.9-1.6 3.7-1.9 3.7-.4zm22.8.8c.3.9-.2 1.3-1.4 1-.9-.1-1.9-.9-2.2-1.6-.3-.9.2-1.3 1.4-1 .9.1 1.9.9 2.2 1.6zm46.2-.9c0 1.2-3.9 2.5-4.8 1.6-.7-.7 1.7-2.5 3.6-2.5.6 0 1.2.4 1.2.9zm67.8.3c-.3.7-1.3 1.5-2.3 1.7-1 .2-2.5.9-3.3 1.7-1.6 1.6-2.8 1.8-3.7.4-.3-.5.5-1.2 1.9-1.6 1.3-.3 2.7-1.2 3-2 .7-1.7 4.9-1.9 4.4-.2zm21.7-.1c1 1.5-.1 2.2-2.4 1.4-1.2-.3-1.9-1.1-1.6-1.6.8-1.2 3.2-1.1 4 .2zM186 201c0 1.2-2.8 2.5-3.6 1.7-.9-.9.6-2.7 2.2-2.7.8 0 1.4.5 1.4 1zm68 0c0 .5-.9 1-2.1 1-1.1 0-1.7-.5-1.4-1 .3-.6 1.3-1 2.1-1s1.4.4 1.4 1zm32.1.5c-.1 1.5-2.4 1.2-2.9-.3-.3-.9.2-1.3 1.2-1 1 .1 1.7.7 1.7 1.3zm68.4-.4c.4.6.5 1.2.2 1.5-.7.7-3.7-.7-3.7-1.7 0-1.3 2.7-1.1 3.5.2zm35.5-.1c0 .5-.4 1-.8 1-.5 0-1.9.9-3.2 2-1.3 1.1-2.9 2-3.7 2-.7 0-1.3.3-1.3.7-.1.5-.2 6.7-.3 14-.2 11.8 0 13.2 1.6 13.7 2 .5 2.3 2.6.4 2.6-3.2 0-3.7-2.4-3.7-16.7 0-8.9.4-14.3 1-14.3s1-.7 1-1.5c0-.9.9-1.5 2.4-1.5 1.3 0 2.6-.7 3-1.5.6-1.7 3.6-2.1 3.6-.5zm32.7.7c.3.7-.3.9-1.6.6-1.2-.3-2.1-1-2.1-1.5 0-1.3 3.2-.6 3.7.9zm67.8-.6c.4.6.5 1.2.2 1.5-.7.7-3.7-.7-3.7-1.7 0-1.3 2.7-1.1 3.5.2zM180 204c0 .5-.7 1.3-1.6 1.8-1.2.7-1.6 3.3-1.8 14-.3 12.5-.2 13.2 1.9 15.1 1.3 1 3.2 2.2 4.4 2.6 1.2.3 2.1 1.1 2.1 1.6 0 1.4-2.7 1.1-4.4-.6-.8-.8-2.1-1.5-3-1.5-2.6 0-3-2-3.1-16.4-.2-11.3.1-14.5 1.3-15.9 1.6-1.8 4.2-2.3 4.2-.7zm44.2.7c1.6 1.4 1.8 3.3 1.8 16.3 0 12.6-.2 14.9-1.6 15.4-2.4.9-4.4.7-4.4-.4 0-.6.6-1 1.4-1 1.9 0 2.3-2.7 2.1-16.4-.2-9.9-.5-12-1.8-12.8-1-.5-1.7-1.3-1.7-1.8 0-1.5 2.2-1.2 4.2.7zm24.8-1.1c0 .4-.7 1.2-1.6 1.9-1.4 1-1.6 3.4-1.6 15 0 9.4.3 14 1.1 14.3 2 .7 1.1 2.3-1.1 2-2.3-.3-2.3-.6-2.6-15.5-.2-12.7 0-15.4 1.3-16.7 1.6-1.6 4.5-2.2 4.5-1zm43.9 1.6c.8 1.6 1.1 6.8.9 16.2-.3 11.8-.6 14-2 15-2.2 1.3-3.8-.2-1.7-1.7 1.2-1 1.6-3.7 1.7-14.8l.1-13.7-2.4-.6c-3.2-.8-3.3-2.6-.2-2.6 1.4 0 2.8.9 3.6 2.2zm24.1-1.4c0 .8-3.7 4.2-4.5 4.2-1 0-.5-2.6.7-3.8 1.3-1.3 3.8-1.6 3.8-.4zm43.4 1.4c1.1 1.6 1.3 2.5.4 3.5-.6.8-.8 2.9-.5 5.1.4 2 .2 5.1-.2 6.7-.7 2.4-.9 1.3-1-5.1-.1-6-.5-8.5-1.6-9.4-.8-.7-1.5-1.6-1.5-2.1 0-1.7 2.9-.9 4.4 1.3zm68.1-.6c1.3 1.3 1.5 4 1.3 16.7-.3 14.9-.3 15.2-2.5 15.5-2.4.4-3.2-1.3-1.1-2 .9-.3 1.3-4.3 1.3-14.6 0-12.7-.1-14.1-1.7-14.5-1-.3-1.8-1-1.8-1.6 0-1.6 2.6-1.3 4.5.5zm24.5-1c0 .4-.7 1.2-1.5 1.8-2.2 1.6-2.6 28.3-.5 29.6.8.5 1.1 1.2.7 1.7-.4.4-1.6.2-2.5-.3-1.4-1-1.7-3.2-2-15.4-.2-12.2 0-14.5 1.4-16.1 1.6-1.8 4.4-2.6 4.4-1.3zm44.2 1.1c1.2 1.5 1.5 4.6 1.3 15.9-.2 14.5-.5 16.4-3.1 16.4-.9 0-2.2.7-3 1.5-1.7 1.7-4.4 2-4.4.6 0-.5 1-1.3 2.2-1.6 4.7-1.6 6.4-4.8 6.2-12.2-.1-3.7-.2-9.6-.3-13-.1-5.2-.4-6.3-2.1-6.8-1.1-.3-2-1.1-2-1.6 0-1.6 3.6-1 5.2.8zm-183.3 12.5c-.1 4.8-.2 5-1.1 2.5-.9-2.5-.4-7.7.7-7.7.3 0 .5 2.4.4 5.2zm30.1 9.7c0 .5-3.6.9-8 .9s-8-.4-8-.9 3.6-.9 8-.9 8 .4 8 .9zm17 2.2c0 1.7-.6 2-3.7 1.7-4.6-.4-5.8-2.8-1.4-2.8 1.7 0 3.1-.5 3.1-1.1 0-.5.5-.7 1-.4.6.3 1 1.5 1 2.6zm-41.1-.5c1.1.9-1.5 2.4-4.3 2.4-3.7 0-4.7-.6-4-2.5.4-.9 1.7-1.2 4.2-.8 2 .3 3.9.7 4.1.9zM219.5 238c.3.5-.5 1.2-1.9 1.6-1.3.3-2.7 1.2-3 2-.6 1.6-3.6 1.9-3.6.4 0-.6.8-1.4 1.8-1.7.9-.4 2.3-1.3 3-2 1.6-1.5 2.9-1.7 3.7-.3zm68.5 0c0 1.2-2.8 2.5-3.6 1.7-.9-.9.6-2.7 2.2-2.7.8 0 1.4.5 1.4 1zm169.2.3c.7.7 2.4 1.7 3.8 2.4 2.3 1 2.4 1.1.6 1.9-1.2.5-2.3.2-3-.8-.6-.8-2.1-1.8-3.4-2.2-1.2-.4-2-1.2-1.7-1.7.8-1.3 2.1-1.1 3.7.4zm67.6.5c.2.7-.3 1.2-1.2 1.2-.9 0-1.6-.7-1.6-1.6 0-1.7 2.2-1.4 2.8.4zM389 239c0 1.3-1.1 1.3-3 0-1.2-.8-1.1-1 .8-1 1.2 0 2.2.4 2.2 1zm-243 2c0 1.2-2.8 2.5-3.6 1.7-.9-.9.6-2.7 2.2-2.7.8 0 1.4.5 1.4 1zm43.5-.1c.3.5.1 1.3-.5 1.6-1.5.9-4.3-.3-3.5-1.5.8-1.3 3.2-1.3 4-.1zm68.3.9c.3.9-.2 1.3-1.4 1-.9-.1-1.9-.9-2.2-1.6-.3-.9.2-1.3 1.4-1 .9.1 1.9.9 2.2 1.6zm25.2-.3c0 .8-.9 1.5-2 1.5-2 0-2.6-1.1-1.3-2.3 1.2-1.3 3.3-.7 3.3.8zm111.2-.1c.8.7 2.4 1.7 3.6 2 1.2.4 2.2 1.2 2.2 1.7 0 1.5-4 1-4.6-.6-.4-.8-1.7-1.5-3-1.5-1.5 0-2.4-.6-2.4-1.5 0-1.9 2.4-1.9 4.2-.1zm24.8-.4c0 1.2-2.8 2.5-3.6 1.7-.9-.9.6-2.7 2.2-2.7.8 0 1.4.5 1.4 1zm68.5-.1c.3.5.1 1.3-.5 1.6-1.5.9-4.3-.3-3.5-1.5.8-1.3 3.2-1.3 4-.1zm43.3.9c.3.9-.3 1.3-1.9 1-1.2-.1-2.4-.9-2.7-1.6-.3-.9.3-1.3 1.9-1 1.2.1 2.4.9 2.7 1.6zM195 244.5c.7.8 2.4 1.5 3.9 1.5 1.4 0 3.3.4 4 .9 1.2.8.9 1.1-1.4 1.7-1.7.4-3.5.2-4.4-.5-.9-.6-2.6-1.5-3.8-2.1-1.3-.5-2.3-1.4-2.3-2 0-1.5 2.6-1.2 4 .5zm14-.5c0 1.2-2.8 2.5-3.6 1.7-.9-.9.6-2.7 2.2-2.7.8 0 1.4.5 1.4 1zm205 0c0 1.2-2.8 2.5-3.6 1.7-.9-.9.6-2.7 2.2-2.7.8 0 1.4.5 1.4 1zm53.8.8c.3.9-.2 1.3-1.4 1-.9-.1-1.9-.9-2.2-1.6-.3-.9.2-1.3 1.4-1 .9.1 1.9.9 2.2 1.6zm14.2-.8c0 1.2-2.8 2.5-3.6 1.7-.9-.9.6-2.7 2.2-2.7.8 0 1.4.5 1.4 1zm-219 1c0 .5-.6 1-1.4 1-.8 0-1.8-.5-2.1-1-.3-.6.3-1 1.4-1 1.2 0 2.1.4 2.1 1zm14.5 0c-.3.5-1.5 1-2.6 1-1 0-1.9-.5-1.9-1 0-.6 1.2-1 2.6-1 1.4 0 2.3.4 1.9 1zm-5.8 2.3c-.5 1.5-6.9 1.6-7.4.1-.2-.7 1.1-1.2 3.7-1.2 2.8-.1 4 .3 3.7 1.1zm137.1-.1c-.3.7-2 1.3-3.8 1.3-1.8 0-3.5-.6-3.7-1.3-.3-.8.8-1.2 3.7-1.2 2.9 0 4 .4 3.8 1.2zm68.2-.2c0 1.6-2.7 2.3-5.8 1.5-2.5-.7-2.5-.8-.7-1.5 2.9-1.2 6.5-1.2 6.5 0zm-439.8 4.8c3.5 2.1 7 4.1 7.8 4.5.8.4 2.9 1.6 4.5 2.7 1.7 1.1 4 2.4 5.3 3 1.2.5 2.2 1.7 2.2 2.7.3 17.8.1 28.4-.4 30.1-.4 1.1-1.9 2.5-3.4 3.2-2.6 1.1-4.7 2.2-10.7 6-1.6 1-5.2 3-7.8 4.5l-4.9 2.6-5.1-2.7c-2.9-1.4-5.8-3.1-6.4-3.6-1.7-1.4-1.6-8.1.2-15.1.8-3.2 1.5-6.9 1.5-8.3 0-2.8 2.3-13.3 4.6-20.5.8-2.6 1.4-5.4 1.4-6.2 0-2.6 2.2-6.7 3.6-6.7.8 0 4.2 1.7 7.6 3.8zm65.6-1.6c2.1 1.3 4.7 2.9 5.7 3.6 1.1.6 2.9 1.7 4 2.2 1.1.6 4.3 2.3 7 4 4.3 2.5 5 3.3 4.7 5.7-.2 1.5-.4 5.8-.4 9.5-.1 3.8-.6 6.8-1 6.8s-.8-.5-.8-1.1c0-.5-.4-.7-1-.4-.5.3-1 2.7-1 5.3 0 2.6-.7 5.6-1.5 6.6-.8 1.1-1.5 3-1.5 4.3 0 3-4.4 6.9-11.7 10.2-1.1.5-2.4 1.5-2.8 2-1 1.6-8.1 1.3-9.5-.4-.7-.8-1.7-1.5-2.2-1.5-.6 0-4.4-2-8.5-4.5-4-2.5-7.8-4.5-8.3-4.5-.5 0-1.6-1-2.4-2.2-1.3-1.8-1.6-5.2-1.6-16.6 0-14.2 0-14.3 2.6-16.7 1.5-1.4 3.9-3.1 5.3-3.8 4.4-2.3 12.5-6.7 15.6-8.7 3.9-2.4 4.8-2.4 9.3.2zm476.7-.2c3.1 2 11.2 6.4 15.6 8.7 1.4.7 3.8 2.4 5.3 3.8 2.6 2.4 2.6 2.5 2.6 16.7 0 11.4-.3 14.8-1.6 16.6-.8 1.2-1.9 2.2-2.4 2.2s-4.3 2-8.3 4.5c-4.1 2.5-7.9 4.5-8.5 4.5-.5 0-1.5.7-2.2 1.5-1.4 1.7-8.5 2-9.5.4-.4-.5-1.7-1.5-2.8-2-7.9-3.6-11.7-7.1-11.7-10.9 0-1.8-.6-3.3-1.5-3.6-1.1-.5-1.5-2.1-1.5-5.9 0-3-.4-5.7-1-6-.5-.3-1-.1-1 .4 0 .6-.4 1.1-.9 1.1-.4 0-.9-3-.9-6.8-.1-3.7-.2-8-.4-9.5-.3-2.8 1.9-4.6 11.7-9.7 3.7-1.9 11.3-6.5 12.1-7.3 1.2-1.1 3.7-.7 6.9 1.3zm65.9.2c.9 1.2 1.6 3.1 1.6 4.1 0 1.1.7 4 1.5 6.6 2.3 7.6 7.5 34.8 7.5 39.7 0 3.6-.6 4.2-7.7 7.8l-5.1 2.7-5.2-2.8c-6.2-3.4-8.6-4.8-12.5-7.3-1.6-1.1-4.2-2.5-5.7-3.1-1.5-.6-3-2-3.4-3.1-.5-1.7-.7-12.3-.4-30.1 0-1 1-2.2 2.3-2.7 1.2-.6 3.6-1.9 5.2-2.9 3.1-2 7.2-4.4 13.5-7.7 1.9-1.1 3.7-2.2 3.8-2.7.7-1.4 3.1-.7 4.6 1.5zm-475.7 2.4c.2.7-1.1 1.1-3.7 1.1-2.8 0-4-.4-4-1.4 0-1.7 7.1-1.4 7.7.3zm68.9-.1c.4.8 1.4 1.5 2.5 1.5 1 0 2.2.6 2.6 1.4.4.8 1.7 1.5 2.7 1.7 2.3.5 3.4 2.9 1.3 2.9-.9 0-2.2-.7-3.1-1.5-.8-.8-1.9-1.5-2.5-1.5-.5 0-1.7-.8-2.7-1.7-1.1-1.1-3.1-1.7-5.5-1.6-3.7.2-4.8-.5-3.2-2 1.3-1.4 7.4-.7 7.9.8zm204.2.2c.2.9-1 1.3-4.2 1.3-2.5 0-4.6.4-4.6.9s-1 1.3-2.2 1.7c-1.2.3-2.8 1.3-3.6 2-.7.8-2 1.4-2.9 1.4-2.1 0-1-2.4 1.3-2.9 1-.2 2.3-.9 2.7-1.7.4-.8 1.6-1.4 2.6-1.4 1.1 0 2.2-.7 2.5-1.6.7-1.9 7.7-1.6 8.4.3zm68.2-.3c0 .9-1.3 1.4-4 1.4-3.8.1-4.8-.6-3.3-2.1 1.3-1.3 7.3-.7 7.3.7zm-350 2.5c0 .5-1 1.3-2.2 1.7-1.2.3-2.8 1.3-3.6 2-1.6 1.6-2.8 1.8-3.7.4-.3-.5.5-1.2 1.9-1.6 1.3-.3 2.7-1.2 3-2 .6-1.5 4.6-2 4.6-.5zm14.6.6c.4.8 1.5 1.5 2.5 1.5 1.1 0 2.2.7 2.5 1.5.4.8 1.4 1.5 2.4 1.5 1.1 0 2.2.5 2.5 1.1.4.5 1.8 1.4 3.1 1.9s2.4 1.4 2.4 2c0 1.5-4 1.2-4.6-.4-.3-.8-1.6-1.7-3-2-1.3-.4-2.4-1.1-2.4-1.6 0-.6-.6-1-1.4-1-.8 0-2.1-.6-2.8-1.3-.7-.7-2.1-1.6-3-2-1-.3-1.8-1.1-1.8-1.7 0-1.6 3-1.2 3.6.5zm52.8-.6c.3.5-.1 1.2-1 1.5-2.2.9-2.4.8-2.4-.9 0-1.6 2.5-2.1 3.4-.6zm118.6.5c16.3 2.3 26.1 6.2 39.2 15.8 18.1 13.2 30.8 34.3 33.4 55.3 2.9 23.3-2.2 43-15.7 61.5-11.3 15.5-26.7 26.3-44.9 31.4-9.2 2.5-24.9 4-29.5 2.7-2.2-.6-5.6-1.1-7.5-1.1-5.1 0-14.5-3.2-24.5-8.3-22.9-11.7-41-37.1-44.1-62.2-3.3-26.4 4-49.5 21.6-68.8 12.2-13.3 34.6-25.5 47.5-25.8 2.2-.1 5.1-.5 6.5-.9 3.7-1.2 6.5-1.1 18 .4zm101 .2c0 1.1-.5 1.4-1.6 1-.9-.3-1.8-.6-2-.6-.3 0-.2-.5.1-1 1-1.6 3.5-1.2 3.5.6zm53-.6c0 .6-.8 1.4-1.7 1.7-1 .4-2.4 1.3-3.1 2-.7.7-2 1.3-2.8 1.3-.8 0-1.4.4-1.4.9s-1.3 1.4-3 2c-1.6.5-3 1.5-3 2 0 .6-.9 1.1-2.1 1.1-2.6 0-2-2.4.7-2.9 1-.2 2.3-.9 2.7-1.7.4-.8 1.6-1.4 2.6-1.4 1.1 0 2.1-.7 2.5-1.5.3-.8 1.4-1.5 2.5-1.5 1 0 2.1-.7 2.5-1.5.6-1.7 3.6-2.1 3.6-.5zm15.6.4c.3.8 1.6 1.7 3 2 1.3.4 2.4 1.1 2.4 1.6 0 .6.8 1 1.9 1 1 0 2.4.7 3.1 1.5.7.8 2.1 1.5 3.1 1.5 1.8 0 1.9 1 1.9 16v16l-2.5 1.2c-3.1 1.4-4.7.1-2.1-1.8 1.7-1.2 1.9-2.8 2.1-14.8.1-11.9-.1-13.7-1.7-15-1-.9-2.2-1.6-2.7-1.6s-1.4-.7-2.1-1.5c-.7-.8-2.1-1.5-3.2-1.5-1 0-2.1-.6-2.4-1.4-.3-.8-1.6-1.7-3-2-1.3-.4-2.4-1.1-2.4-1.6 0-1.5 4-1.2 4.6.4zm-292.8 2.8c-.3.7-1.3 1.5-2.3 1.7-1 .2-2.5.9-3.3 1.7-1.6 1.6-2.8 1.8-3.7.4-.3-.5.5-1.2 1.9-1.6 1.3-.3 2.7-1.2 3-2 .7-1.7 4.9-1.9 4.4-.2zm229.8.2c.3.8 1.7 1.7 3 2 1.4.4 2.2 1.1 1.9 1.6-.9 1.4-2.1 1.2-3.7-.4-.8-.7-2.4-1.7-3.6-2-1.2-.4-2.2-1.2-2.2-1.7 0-1.5 4-1 4.6.5zM150 261c0 .6-.8 1.4-1.7 1.7-4.7 1.8-5 2.7-4.8 17.1.2 9.2.6 13.7 1.4 14 .6.2 1.7.9 2.4 1.6.6.7 2 1.5 3 1.9.9.3 1.7 1.1 1.7 1.7 0 1.6-3 1.2-3.6-.5-.4-.8-1.4-1.5-2.4-1.5-4.4 0-5-2.3-5-18.6 0-14.4.1-15.4 1.9-15.4 1 0 2.4-.7 3.1-1.5 1.4-1.7 4-2 4-.5zm104.5.9 2.4 1.8-3.5 3.3c-1.8 1.9-3.4 4-3.4 4.6 0 .7-.6 1.7-1.3 2.1-.7.4-2.4 2.6-3.8 4.8-2.1 3.5-2.4 3.7-2.7 1.8-.2-1.4.7-3.4 2.2-5 1.4-1.5 2.6-3.1 2.6-3.6 0-.4 1.6-2.5 3.6-4.5 3.4-3.5 3.5-3.7 1.5-4.6-2.2-1-2.8-2.6-1-2.6.6 0 2.1.8 3.4 1.9zm168.5-1c0 .5-.9 1.3-2 1.6l-2 .6 2 2.6c2.9 3.7 1.6 4.2-2 .8l-2.9-2.8 2.2-1.8c2.4-2 4.7-2.5 4.7-1zm-209.2 3.3c-.5 1.5-4.8 2.4-4.8 1s1.2-2.2 3.3-2.2c1 0 1.7.5 1.5 1.2zm250 .6c.3.9-.3 1.3-1.9 1-1.2-.1-2.4-.9-2.7-1.6-.3-.9.3-1.3 1.9-1 1.2.1 2.4.9 2.7 1.6zm-37.8 6.7c0 .8.5 1.5 1 1.5.6 0 1 .6 1 1.3 0 .7.9 2 2 3 2.1 1.8 2.7 4.7 1 4.7-.6 0-1.4-.8-1.7-1.8-.8-2-2.1-3.6-4.5-6-2.2-2-2.3-4.2-.3-4.2.8 0 1.5.7 1.5 1.5zm59 4c0 1.9-.4 3.5-1 3.5-.5 0-1-1.6-1-3.5s.5-3.5 1-3.5c.6 0 1 1.6 1 3.5zm-273.3 3.2c-.4 1.7-.4 1.7-1.2 0-.4-.9-.4-2.5 0-3.5.8-1.6.8-1.6 1.2 0 .3 1 .3 2.6 0 3.5zM463 277c0 1-.4 2.2-1 2.5-.6.4-1-.7-1-2.5s.4-2.9 1-2.5c.6.3 1 1.5 1 2.5zm-222 7.4c0 .8-.4 1.7-.9 2.1-1.2.7-2.4-1.2-1.6-2.5.9-1.5 2.5-1.2 2.5.4zm193.7.3c.4 1 1.3 2.4 2 3.1 1.7 1.7 1.7 5.5.1 5-.7-.3-1.5-1.5-1.6-2.8-.2-1.3-1-3-1.8-3.7-.8-.8-1.4-1.9-1.4-2.4 0-1.6 2-1 2.7.8zm49.9 4c-1.1 1.1-1.9-.6-1.1-2.4.8-1.7.8-1.7 1.2 0 .3 1 .2 2.1-.1 2.4zm-247.5 3c-.9 1.6-1 1.4-1.1-1.2 0-2.1.3-2.6 1.1-1.8s.8 1.6 0 3zm316 2.5c1.1 2.1 0 2.3-2.5.5-1.3-1-1.6-2-1-4.2l.7-2.9 1 2.4c.5 1.4 1.3 3.3 1.8 4.2zm-430.8.8c-2.8 2.6-3.3 1.6-1.4-2.6 1.5-3.3 1.6-3.4 2.5-1.4.7 1.6.5 2.5-1.1 4zm341.2-3.4c1.4.6 1.3.9-.6 3-2.3 2.5-4.9 3.2-4.9 1.4 0-.6.7-1.3 1.5-1.6.8-.4 1.5-1.2 1.5-2 0-1.6.2-1.6 2.5-.8zM213 293.7c1.1 1 2 2.1 2 2.5 0 1.4-2.3.9-4.2-.9-3.5-3.1-1.4-4.7 2.2-1.6zm275 2.4c0 1.7-2.9.9-4-1-1.5-3-1.2-3.3 1.5-1.5 1.4.9 2.5 2 2.5 2.5zm-253.2 1.1c-.4 4.9-2.8 6.6-2.8 2 0-3.7.9-6.2 2.2-6.2.5 0 .8 1.9.6 4.2zm-45-2c-.5 1.5-4.8 2.4-4.8 1s1.2-2.2 3.3-2.2c1 0 1.7.5 1.5 1.2zm250.6.4c.3.9.6 2.7.6 4.1 0 3.9-2.5 2.2-2.8-2-.3-3.7 1.1-5 2.2-2.1zM184 298.5c0 .9-.9 1.5-2.4 1.5-1.3 0-2.6.7-3 1.5-.6 1.7-3.6 2.1-3.6.5 0-.6.8-1.4 1.8-1.7.9-.4 2.3-1.3 3-2 1.8-1.8 4.2-1.6 4.2.2zm309.2-.2c.7.7 2.1 1.6 3.1 2 .9.3 1.7 1.1 1.7 1.7 0 1.6-3 1.2-3.6-.5-.4-.8-1.7-1.5-3-1.5-1.5 0-2.4-.6-2.4-1.5 0-1.8 2.4-2 4.2-.2zm31.8-.4c0 1.5-1.9 2.3-3.8 1.6-1.4-.5-1.4-.7-.2-1.5 1.9-1.2 4-1.3 4-.1zM221 299c0 .5.9 1 1.9 1 2.6 0 3.7 1.8 1.5 2.7-1 .4-2.2 0-2.9-1-.7-1-1.9-1.7-2.8-1.7-.9 0-1.9-.5-2.2-1-.4-.6.5-1 1.9-1s2.6.4 2.6 1zm235.5 0c-.3.5-1.4 1-2.5 1-1 0-2 .7-2.4 1.5-.6 1.7-3.6 2.1-3.6.4 0-.6.9-1.3 2-1.6 1.1-.3 2-.9 2-1.4 0-.5 1.2-.9 2.6-.9 1.4 0 2.3.4 1.9 1zm-298.8 2.3c.4.8 1.6 1.6 2.6 2 .9.3 1.7 1.1 1.7 1.7 0 1.6-3 1.2-3.6-.5-.4-.8-1.4-1.5-2.4-1.5-2 0-3.3-1.3-2.3-2.4 1.1-1 3.2-.7 4 .7zm362.1-.1c-.3.7-1.3 1.5-2.4 1.7-1 .2-2.3.9-2.7 1.7-.4.8-1.6 1.4-2.6 1.4-1.1 0-2.1.7-2.5 1.5-.7 1.8-4.2 2-5.3.2-.4-.7-1.9-1.8-3.3-2.4-2.3-1-2.4-1.1-.6-1.9 1.3-.5 2.3-.2 3.1.9 1.3 1.8 6.5 2.4 6.5.8 0-.5 1-1.3 2.2-1.7 1.2-.3 2.8-1.3 3.6-2 1.7-1.7 4.5-1.8 4-.2zm-346.3 2.7c.3.5-.5 1.3-1.7 1.7-1.3.4-2.8 1.4-3.4 2.2-.6.9-1.8 1.3-2.8.9-2.3-.9-2-2.7.5-2.7 1.1 0 2.7-.7 3.5-1.5 1.8-1.7 3-1.9 3.9-.6zm58.3 2c.4 2.2.3 2.2-2.3.5-2-1.3-2.3-1.9-1.3-2.5 1.9-1.3 3.3-.5 3.6 2zm213.6-2c.3.5-.5 1.6-1.9 2.5-2.4 1.6-2.5 1.6-2.5-.9 0-1.8.5-2.5 1.9-2.5 1.1 0 2.2.4 2.5.9zM67 308.5c.7.8 1.6 1.5 2.1 1.5s4.3 2 8.5 4.5c4.1 2.5 7.8 4.5 8 4.5.3 0 1.8 1 3.4 2.2l3 2.2v30.2l-3 2.2c-1.6 1.2-3.1 2.2-3.4 2.2-.2 0-3.7 1.9-7.8 4.3-4 2.4-8 4.6-8.8 5-.8.4-2.3 1.2-3.2 1.9-1.4 1-2.5.8-6.3-1.2-5.2-2.8-7.6-4.2-12-7-1.6-1.1-4.1-2.5-5.5-3.1-5.9-2.5-6-3-6-19.4s.1-16.9 6-19.4c1.4-.6 3.9-2 5.5-3.1 1.7-1.1 3.9-2.4 5-3 1.1-.6 3.8-2.1 6-3.5 4.7-2.8 6.8-3.1 8.5-1zm547.5 1c2.2 1.4 4.9 2.9 6 3.5 1.1.6 3.4 1.9 5 3 1.7 1.1 4.1 2.5 5.5 3.1 5.9 2.5 6 3 6 19.4 0 16.6.1 16.3-6.5 19.8-6.2 3.3-7.1 3.8-10 5.7-6.1 3.9-11.4 6.3-12.7 5.6-.7-.3-2-1-2.8-1.6-3-1.9-17.2-10-17.6-10-.3 0-1.8-1-3.4-2.2l-3-2.2v-30.2l3-2.2c1.6-1.2 3.1-2.2 3.4-2.2.2 0 3.9-2 8-4.5 4.2-2.5 8-4.5 8.5-4.5s1.4-.7 2.1-1.5c1.7-2.1 3.8-1.8 8.5 1zm-481.5.4c0 .5 1 1.1 2.2 1.3 1.2.2 2.4.9 2.6 1.7.4 1.1-.1 1.2-1.9.7-3-1-4.8-1-7.6-.1-1.7.6-2.3.3-2.3-.9 0-.9.8-1.6 1.9-1.6 1.1 0 2.3-.5 2.6-1 .8-1.3 2.5-1.3 2.5-.1zm409.5.1c.3.5 1.5 1 2.6 1 1 0 1.9.7 1.9 1.5 0 2-2.4 1.9-4.4-.1-1.5-1.4-1.7-1.4-3.2 0-.8.9-2.2 1.6-3.1 1.6-2.2 0-1-2.5 1.5-2.8 1.2-.2 2.2-.8 2.2-1.3 0-1.2 1.7-1.2 2.5.1zM198 312c0 .6-.8 1.4-1.7 1.7-1 .4-2.4 1.3-3.1 2-1.8 1.8-4.2 1.6-4.2-.2 0-.8.8-1.5 1.9-1.5 1 0 2.4-.7 3.1-1.5 1.4-1.7 4-2 4-.5zm7.8.8c.3.9-.2 1.3-1.4 1-.9-.1-1.9-.9-2.2-1.6-.3-.9.2-1.3 1.4-1 .9.1 1.9.9 2.2 1.6zM471 312c0 1.2-2.8 2.5-3.6 1.7-.9-.9.6-2.7 2.2-2.7.8 0 1.4.5 1.4 1zm7.5.1c.4.5 1.8 1.4 3.1 1.9s2.4 1.4 2.4 2c0 1.4-2.6 1.2-4.2-.3-.7-.7-2.1-1.6-3-2-1-.3-1.8-1.1-1.8-1.7 0-1.3 2.7-1.3 3.5.1zm-353.7 3.1c-.3.7-1.3 1.5-2.3 1.7-1 .2-2.5.9-3.3 1.7-.7.8-1.8 1.2-2.3.8-1.2-.7-.2-2.4 1.6-2.4.7 0 1.5-.7 1.9-1.5.7-1.8 5-2.1 4.4-.3zm17.3.3c-.1 1.5-2.4 1.2-2.9-.3-.3-.9.2-1.3 1.2-1 1 .1 1.7.7 1.7 1.3zm68.9-.7c0 1.4-1.1 2.1-2.6 1.5-2.1-.8-1.7-2.3.6-2.3 1.1 0 2 .4 2 .8zm255 .1c0 1-3 2.4-3.7 1.7-.3-.3-.2-.9.2-1.5.8-1.3 3.5-1.5 3.5-.2zm68 .1c0 1.2-2.8 2.5-3.6 1.7-.9-.9.6-2.7 2.2-2.7.8 0 1.4.5 1.4 1zm18.7.3c.4.8 1.7 1.7 2.7 2.1 1.5.5 1.7.9.7 1.9-1 .9-1.5.9-2.4-.4-.7-.9-2.1-1.8-3.1-2-1.1-.2-2.1-1-2.4-1.7-.5-1.6 3.5-1.6 4.5.1zM148 318.6c0 .9-.7 1.4-1.7 1.2-2.5-.5-2.8-2.8-.4-2.8 1.2 0 2.1.6 2.1 1.6zm39.8-.4c-.3.7-1.4 1.4-2.6 1.6-1.2.2-2.2.7-2.2 1.2 0 1.1-3.9 2-4.5.9-.3-.4.5-1.1 1.9-1.5 1.3-.3 2.7-1.2 3-2 .7-1.7 4.9-1.9 4.4-.2zm28.9.2c.4.8 1.7 1.5 2.7 1.7 1.1.2 2.1 1 2.4 1.8.3 1-.2 1.1-1.9.6-1.3-.4-2.6-1.1-2.9-1.5-.3-.4-1.5-1-2.7-1.4-1.3-.4-2.3-1.2-2.3-1.7 0-1.4 3.8-1.1 4.7.5zm244.1-.2c-.3.7-1.3 1.5-2.4 1.7-1 .2-2.1.7-2.4 1.1-.3.4-1.6 1.1-2.9 1.5-1.7.5-2.2.4-1.9-.6.3-.8 1.3-1.6 2.4-1.8 1-.2 2.3-.9 2.7-1.7 1-1.8 5-1.9 4.5-.2zm28.8.2c.3.8 1.7 1.7 3 2 1.4.4 2.2 1.1 1.9 1.6-.9 1.4-2.1 1.2-3.7-.4-.8-.8-2.3-1.5-3.3-1.7-1-.2-2-1-2.3-1.7-.5-1.7 3.7-1.5 4.4.2zm39.4-.5c0 .5-.7 1.2-1.6 1.5-2.2.9-2.4.8-2.4-.9 0-.8.9-1.5 2-1.5s2 .4 2 .9zm-508.2 3c2.1 1.8 2.2 2.5 2.2 17.8-.1 15.7-.1 15.8-2.6 17.6-5 3.7-5.4 2.5-5.4-17.6 0-10.1.3-18.7.7-19 1.1-1.1 2.7-.7 5.1 1.2zm93.2 17.6V358h-2.4c-1.3 0-3.5-.9-5-2.1l-2.6-2v-30.8l2.6-2c1.5-1.2 3.7-2.1 5-2.1h2.4v19.5zm452.4-17.4 2.6 2v30.8l-2.6 2c-1.5 1.2-3.7 2.1-5 2.1H559v-39h2.4c1.3 0 3.5.9 5 2.1zm91.4 17.2c.3 20.5-.1 21.8-5.2 18-2.5-1.8-2.5-1.9-2.6-17.6 0-15.3.1-16 2.3-17.8 4.8-4.1 5.2-2.9 5.5 17.4zm-504.2-16.8c.4.8 1.2 1.5 2 1.5 1.1 0 1.4 2.9 1.4 15.5s-.3 15.5-1.4 15.5c-.8 0-1.6.7-2 1.5-.6 1.6-4.6 2.1-4.6.5 0-.5 1.1-1.2 2.5-1.6 1.4-.3 2.5-1.4 2.6-2.3.1-1.6 0-24.2-.1-27.2 0-.9-1.1-2-2.5-2.3-1.4-.4-2.5-1.1-2.5-1.6 0-1.6 4-1.1 4.6.5zM524 321c0 .5-1.1 1.2-2.4 1.6-1.3.3-2.6 1.3-2.8 2.2-.3 1.4-.2 24 .1 27.8.1.7 1.2 1.5 2.6 1.8 1.4.4 2.5 1.1 2.5 1.6 0 1.6-4 1.1-4.6-.5-.4-.8-1.2-1.5-2-1.5-1.1 0-1.4-2.9-1.4-15.5s.3-15.5 1.4-15.5c.8 0 1.6-.7 2-1.5.6-1.6 4.6-2.1 4.6-.5zm-346.5 3.7c-.4 1-.8 8-.8 15.5-.1 9-.5 13.8-1.1 13.8-.7 0-1.1-5.3-1.1-15.5 0-14.4.1-15.5 1.9-15.5 1.3 0 1.6.4 1.1 1.7zm48.3 13.8c.2 12.6 0 15.5-1.1 15.5s-1.3-3-1.3-15.5c.1-10.2.5-15.5 1.1-15.5.7 0 1.2 5.5 1.3 15.5zm224 0c-.1 12.3-.4 15.5-1.5 15.5-1 0-1.3-3.2-1.3-15.5 0-12.8.3-15.5 1.4-15.5 1.2 0 1.5 2.7 1.4 15.5zm48.8 0c0 14.3-.1 15.5-1.8 15.5-1 0-1.8.4-1.8 1 0 .5-1.1 1.2-2.4 1.6-1.4.3-2.7 1.2-3 2-.7 1.7-4.9 1.9-4.4.1.3-.6 1.3-1.4 2.4-1.6 1-.2 2.3-.9 2.7-1.7.4-.8 1.7-1.4 2.7-1.4 1 0 2.2-.5 2.6-1.1.4-.6.7-7.6.6-15.5 0-10.2.3-14.4 1.1-14.4.9 0 1.2 4.5 1.3 15.5zM184 356.1c2.2 1.2 4 2.5 4 3 0 1.5-4 1-4.6-.5-.3-.8-1.7-1.7-3-2-1.4-.4-2.2-1.1-1.9-1.6.8-1.3.8-1.3 5.5 1.1zm37.5-1.1c.3.5-.5 1.2-1.9 1.6-1.3.3-2.7 1.2-3 2-.3.8-1.4 1.4-2.5 1.4-1 0-2.1.7-2.5 1.5-.6 1.6-4.6 2.1-4.6.5 0-.5 1.1-1.2 2.4-1.6 1.4-.3 2.7-1.2 3-2 .3-.8 1.4-1.4 2.5-1.4 1 0 2.1-.7 2.5-1.5.6-1.7 3.2-2 4.1-.5zm233.7.4c.8.7 2.4 1.7 3.6 2 1.2.4 2.2 1.1 2.2 1.6 0 .4 1.1 1.1 2.5 1.4 1.4.4 2.5 1.1 2.5 1.6 0 1.6-3.7 1.1-4.4-.5-.3-.8-1.5-1.5-2.6-1.5s-2.3-.6-2.6-1.4c-.3-.8-1.7-1.7-3-2-1.4-.4-2.2-1.1-1.9-1.6.9-1.4 2.1-1.2 3.7.4zm-336.5 4.2c-.9.9-2.8-.6-2.1-1.8.4-.6 1-.6 1.7.1.6.6.8 1.3.4 1.7zM148 358c0 1.3-2.8 2.5-3.8 1.6-.3-.4 0-1.1.8-1.6 2-1.3 3-1.2 3 0zm379.8.8c.2.7-.3 1.2-1.2 1.2-.9 0-1.6-.7-1.6-1.6 0-1.7 2.2-1.4 2.8.4zm29.2.3c0 .5-.9.9-1.9.9-1 0-2.1.7-2.5 1.5-.7 1.8-5 2.1-4.4.2.3-.6 1.3-1.4 2.3-1.6 1-.2 2.5-.9 3.3-1.7 1.4-1.4 3.2-1.1 3.2.7zm-432.2 2.7c.3.9-.3 1.3-1.9 1-1.2-.1-2.4-.9-2.7-1.6-.3-.9.3-1.3 1.9-1 1.2.1 2.4.9 2.7 1.6zm18-.6c-.3.7-1.3 1.5-2.4 1.7-1 .2-2.3.9-2.7 1.7-.9 1.6-3.7 1.9-3.7.4 0-.6.4-1 .8-1 .5 0 1.9-.9 3.2-2 2.6-2.2 5.4-2.7 4.8-.8zm50.4.1c.7.7 2.1 1.6 3.1 2 .9.3 1.7 1.1 1.7 1.7 0 1.5-2.6 1.2-4-.5-.7-.8-2.1-1.5-3.1-1.5-1.1 0-1.9-.7-1.9-1.5 0-1.8 2.4-2 4.2-.2zm290.8.2c0 .8-.8 1.5-1.9 1.5-1 0-2.4.7-3.1 1.5-1.4 1.7-4 2-4 .5 0-.6.8-1.4 1.8-1.7.9-.4 2.3-1.3 3-2 1.8-1.8 4.2-1.6 4.2.2zm49.8.3c.3.9-.2 1.3-1.4 1-.9-.1-1.9-.9-2.2-1.6-.3-.9.2-1.3 1.4-1 .9.1 1.9.9 2.2 1.6zM131 365c1.3 1.1 2 2.3 1.6 2.7-.3.4-1.2.1-1.8-.5-.7-.7-2-1.2-3-1.2s-1.8-.7-1.8-1.5c0-2.1 2.3-1.9 5 .5zm75-1c0 1.2-2.8 2.5-3.6 1.7-.9-.9.6-2.7 2.2-2.7.8 0 1.4.5 1.4 1zm264.8.8c.3.9-.2 1.3-1.4 1-.9-.1-1.9-.9-2.2-1.6-.3-.9.2-1.3 1.4-1 .9.1 1.9.9 2.2 1.6zm69.5.6c.5.8.9.8 1.5 0 .4-.6 1.7-1.4 3-1.8 1.6-.6 2.2-.3 2.2.8 0 .9-.8 1.6-1.8 1.6s-2.4.6-3 1.2c-.9.9-1.5 1-2 .2-.4-.7-1.6-1.3-2.6-1.5-1.1-.2-2.1-1-2.4-1.8-.3-1 .2-1.1 1.9-.6 1.3.4 2.7 1.3 3.2 1.9zM35.5 369c2.8 1.6 5.9 3.4 7 4 1.1.6 3.4 1.9 5 3 1.7 1.1 4.2 2.5 5.7 3.1 1.5.6 3 2 3.4 3.1.5 1.7.7 12.3.4 30.1 0 1-1 2.2-2.2 2.7-1.3.6-3.6 1.9-5.3 2.9-3.1 2-7.2 4.4-13.5 7.7-1.9 1.1-3.8 2.3-4.2 2.9-1.1 1.5-4.2-.7-5-3.6-.8-2.9-3.1-11.7-4.8-18.4-.6-2.8-1.6-7.5-2-10.5-.5-3-1.4-9-2.1-13.3-.9-5.2-1-8.3-.3-9.4.8-1.3 11.1-7.4 12.4-7.3.3.1 2.8 1.4 5.5 3zm615.1.7c2.5 1.4 4.8 3.3 5.2 4.1.3.9 0 5-.7 9.1-.7 4.2-1.6 10.1-2.1 13.1-.4 3-1.4 7.7-2 10.5-1.7 6.7-4 15.5-4.8 18.4-.8 2.9-3.9 5.1-5 3.6-.4-.6-2.3-1.8-4.2-2.9-6.3-3.3-10.4-5.7-13.5-7.7-1.6-1-4-2.3-5.2-2.9-1.3-.5-2.3-1.7-2.3-2.7-.3-17.8-.1-28.4.4-30.1.4-1.1 1.9-2.5 3.4-3.1 1.5-.6 4.1-2 5.7-3.1 1.7-1.1 3.9-2.4 5-3 1.1-.6 4.3-2.4 7-4 5.4-3.2 6.2-3.1 13.1.7zm-548.1-1.6c.4.5 1.7 1.5 2.8 2 7.9 3.6 11.7 7.1 11.7 10.9 0 1.9.7 3.3 2 4 1.5.8 2 .8 2-.3 0-.7-.5-1.8-1.2-2.5-1.7-1.7.3-1.5 2.6.3 1.5 1.1 1.6 1.9.8 4.2-.6 1.5-1.1 2.2-1.1 1.5-.1-.6-.5-1.2-1.1-1.2-.5 0-1 2-1 4.4 0 2.5.5 4.8 1 5.1.6.3 1 .1 1-.4 0-.6.4-1.1.9-1.1s.9 2.8 1 6.2c0 3.5.1 7.8.3 9.6.3 3-.1 3.6-4.7 6.2-2.7 1.7-5.9 3.4-7 4-1.1.6-4.2 2.4-7 4-2.7 1.7-5.6 3.3-6.3 3.6-1.2.6-4.5-.8-11.2-4.8-1.9-1.1-5.6-3.1-8.2-4.5-2.5-1.3-5.8-3.5-7.2-4.8-2.6-2.4-2.6-2.6-2.6-16.7 0-11.4.3-14.8 1.6-16.6.8-1.2 1.9-2.2 2.4-2.2s4.3-2 8.3-4.5c4.1-2.5 7.9-4.5 8.5-4.5.5 0 1.5-.7 2.2-1.5 1.4-1.7 8.5-2 9.5-.4zm477.5.4c.7.8 1.7 1.5 2.2 1.5.6 0 4.4 2 8.5 4.5 4 2.5 7.8 4.5 8.3 4.5.5 0 1.6 1 2.4 2.2 1.3 1.8 1.6 5.2 1.6 16.6 0 14.1 0 14.3-2.6 16.7-1.4 1.3-4.7 3.5-7.2 4.8-2.6 1.4-6.3 3.4-8.2 4.5-8.3 5-10.1 5.6-12.2 4.3-1.1-.7-3.7-2.1-5.9-3.3-7.8-4-7.9-4.5-7.9-27.5v-20.5l3.7-3.4c2-1.9 4.2-3.4 4.9-3.4.6 0 1.7-.7 2.4-1.5s2.9-1.5 5-1.5 4.3.7 5 1.5zm-411.3.8c.4.7 1.9 1.8 3.3 2.4 2.3 1 2.4 1.1.6 1.9-1.3.5-2.3.2-3.1-.9-.7-1-2.2-1.7-3.4-1.7-1.2 0-2.1-.6-2.1-1.5 0-1.8 3.6-2 4.7-.2zm339.6.2c.1.5-.7 1.1-1.8 1.4-1.1.2-2.5 1-3.1 1.9-.7 1-1.7 1.3-3 .8-1.8-.8-1.7-.9.6-1.9 1.4-.6 2.9-1.7 3.3-2.5.9-1.5 3.7-1.3 4 .3zM232 372.4c0 1.3.7 2.6 1.5 3 .9.3 1.5 1.9 1.5 4.1 0 2 .7 4.3 1.5 5.1 1.7 1.7 2 4.4.5 4.4-.5 0-1.2-1.1-1.6-2.5-.3-1.3-1.2-2.9-2-3.6-.8-.6-1.4-2.4-1.4-4 0-2-.8-3.4-2.6-4.6-2.5-1.6-2.5-1.7-.8-3 2.6-1.9 3.4-1.6 3.4 1.1zm212.1-1.3c2.3 1.2 1.6 2.9-1.2 2.9-1.2 0-1.9-.7-1.9-2 0-2.3.4-2.4 3.1-.9zm-282.1 1c0 .6-.9 1.3-2 1.6-1.1.3-2 .9-2 1.4 0 .5-1.2.9-2.6.9-1.4 0-2.3-.4-1.9-1 .3-.6 1.4-1 2.5-1 1 0 2-.7 2.4-1.5.6-1.7 3.6-2.1 3.6-.4zm352.7.3c.4.8 1.7 1.5 2.7 1.7 1.1.2 2.1 1 2.4 1.8.3 1-.2 1.1-1.9.6-1.3-.4-2.6-1.1-2.9-1.5-.3-.3-1.3-.9-2.2-1.3-1-.3-1.8-1.1-1.8-1.7 0-1.5 2.8-1.2 3.7.4zm-336.1 3.1c.4.8 1.7 1.5 3 1.5 1.5 0 2.4.6 2.4 1.5 0 1.8-2.4 2-4.2.2-.7-.7-2.1-1.6-3-2-1-.3-1.8-1.1-1.8-1.7 0-1.6 3-1.2 3.6.5zm47.4-.6c0 .5-1 1.3-2.2 1.7-1.3.4-2.8 1.4-3.4 2.2-.7.9-1.8 1.3-2.8.9-2.1-.8-1.2-2.7 1.4-2.7 1 0 2-.7 2.4-1.5.6-1.6 4.6-2.1 4.6-.6zm225.7.5c.4.8 1.6 1.5 2.6 1.7 1 .2 1.8.8 1.8 1.4.1 1.6-1.8 1.7-3.2.2-.8-.7-2.2-1.6-3.1-2-1-.3-1.8-1.1-1.8-1.7 0-1.5 2.8-1.2 3.7.4zm46.3-.4c0 .6-.8 1.4-1.7 1.7-1 .4-2.4 1.3-3.1 2-1.8 1.8-4.2 1.6-4.2-.2 0-.9.9-1.5 2.4-1.5 1.3 0 2.6-.7 3-1.5.6-1.7 3.6-2.1 3.6-.5zm-57 2.4c0 3.1-1 5.6-2.1 5.6-1 0-1.2-6.3-.2-7.3 1.3-1.4 2.3-.6 2.3 1.7zm-289 .5c0 .5-1.9 1.9-4.2 3.1l-4.3 2.1.2 13.7c.1 7.5.5 14.5.8 15.4.6 1.4.2 1.8-1.4 1.8-2 0-2.1-.4-2.1-15.4 0-12.7.3-15.7 1.6-17 .8-.9 2.1-1.6 2.8-1.6.8 0 1.9-.7 2.6-1.5 1.4-1.7 4-2 4-.6zm372.6.6c.4.8 1.4 1.5 2.4 1.5 4.4 0 5 2.3 5 18.6 0 14.7-.1 15.4-2 15.4-2 0-2.6-1.1-1.3-2.3.3-.4.8-7 1-14.7l.3-14-5-2.2c-2.7-1.2-4.7-2.5-4.4-3 .8-1.3 3.4-.9 4 .7zm-335.1 2.6c.4.6.5 1.3.2 1.6-.8.7-4.7-.7-4.7-1.8 0-1.3 3.7-1.1 4.5.2zm25.5-.2c0 .5-.7 1.1-1.5 1.5-.8.3-1.5 1.2-1.5 2.1 0 1.7-.2 1.8-2.5.9-1.4-.6-1.3-.9.6-3 2.2-2.4 4.9-3.2 4.9-1.5zm247.8 1.4c1.7 1.8 1.9 2.6 1 3.5-1.8 1.8-2.8 1.5-2.8-.8 0-1.1-.7-2.3-1.5-2.6-.8-.4-1.5-1-1.5-1.5 0-1.7 2.6-.9 4.8 1.4zm25.2-1.4c0 1.1-3.1 2.4-3.9 1.6-.3-.3.1-1 .9-1.5 1.9-1.2 3-1.2 3-.1zm68 0c0 .5-.9 1.3-2 1.6-1.1.3-2 1.4-2 2.3-.4 17.2 0 26.6 1.1 27.3.8.4 1 1.1.6 1.6-.4.4-1.6.2-2.5-.3-1.5-1-1.7-3.1-1.8-15.5-.1-13.5 0-14.5 2-16.1 2.3-1.9 4.6-2.3 4.6-.9zm-118.6 5.8c-.4 1.5-1.3 3.4-2.1 4.1-.7.7-1.3 1.8-1.3 2.3 0 .5-.4.9-1 .9-1.5 0-1.2-1.6.5-3.4.8-.8 1.5-2.3 1.5-3.4 0-2 .8-3.2 2.2-3.2.5 0 .5 1.2.2 2.7zM240.5 392c.3 1.1 1 2 1.5 2 .4 0 1.8 1.9 3 4.2 1.2 2.4 2.8 4.7 3.6 5.1.8.4 1.4 1.6 1.4 2.5 0 .9 1.6 3 3.5 4.6l3.4 2.9-2.3 1.8c-1.4 1.1-2.9 1.9-3.5 1.9-1.8 0-1.2-1.6 1-2.6 2-.9 2-1.1-1.5-4.9-1.9-2.2-3.6-4.3-3.6-4.7 0-.4-1.3-2.2-3-4-1.6-1.8-3-4-3-4.9 0-.9-.7-1.9-1.5-2.3-.8-.3-1.5-1.2-1.5-2.1 0-2.2 1.8-1.9 2.5.5zm191.5 3.9c0 .4-.9 2-2 3.4s-2 2.8-2 3.1c0 1.4-4 4.9-4.7 4.2-.5-.4 0-1.3 1-2 .9-.7 1.7-2 1.7-2.9 0-.9.6-2 1.3-2.4.8-.4 1.6-1.6 2-2.6.6-1.7 2.7-2.4 2.7-.8zm-220 5.3c0 2.5-.3 2.9-1 1.8-1.3-2-1.3-5 0-5 .6 0 1 1.5 1 3.2zm210.4 8c-.4.7-1.3 2-2.1 3-1.3 1.4-1.2 1.7.6 2.3 2.2.7 2.9 2.5 1 2.5-.5 0-2.1-.8-3.4-1.8l-2.3-1.7 2.6-2.8c2.6-2.8 4.9-3.7 3.6-1.5zm63.6 3.4c0 1.6-2.6 1.9-3.5.4-.3-.6-.4-1.4 0-2 .8-1.3 3.5-.1 3.5 1.6zm-295-.6c0 1.2-2.8 2.5-3.6 1.7-.9-.9.6-2.7 2.2-2.7.8 0 1.4.5 1.4 1zm21.5.1c1 1.5-.1 2.3-2 1.5-.9-.3-1.3-1-1-1.6.8-1.3 2.2-1.3 3 .1zM464 412c0 1.2-2.8 2.5-3.6 1.7-.9-.9.6-2.7 2.2-2.7.8 0 1.4.5 1.4 1zm-314.2 3.8c.3.9-.2 1.3-1.4 1-.9-.1-1.9-.9-2.2-1.6-.3-.9.2-1.3 1.4-1 .9.1 1.9.9 2.2 1.6zm36-.6c-.3.7-1.3 1.5-2.4 1.7-1 .2-2.3.9-2.7 1.7-.4.8-1.6 1.4-2.6 1.4-1.1 0-2.1.7-2.5 1.5-.6 1.6-4.6 2.1-4.6.5 0-.5 1.1-1.2 2.5-1.6 1.4-.3 2.5-1 2.5-1.5s.6-.9 1.3-.9c.8 0 2.4-.9 3.7-2 2.6-2.2 5.4-2.7 4.8-.8zm32.4.2c.8.7 2.4 1.7 3.6 2 1.2.4 2.2 1.2 2.2 1.7 0 1.5-4 1-4.6-.5-.3-.8-1.7-1.7-3-2-1.4-.4-2.2-1.1-1.9-1.6.9-1.4 2.1-1.2 3.7.4zm240.3-.4c.3.5-.5 1.2-1.9 1.6-1.3.3-2.7 1.2-3 2-.6 1.6-4.6 1.9-4.6.4 0-.5 1.1-1.2 2.4-1.6 1.4-.3 2.7-1.2 3-2 .6-1.6 3.2-1.9 4.1-.4zm33.5 1c.3.4 1.5 1 2.8 1.4 1.2.4 2.2 1.1 2.2 1.6 0 .4 1.1 1.1 2.5 1.4 1.4.4 2.5 1.1 2.5 1.6 0 1.6-4 1.1-4.6-.5-.4-.8-1.4-1.5-2.5-1.5-1 0-2.2-.6-2.6-1.4-.4-.8-1.7-1.5-2.7-1.7-1.1-.2-2.1-1-2.4-1.8-.3-1 .2-1.1 1.9-.6 1.3.4 2.6 1.1 2.9 1.5zm34.8-.8c-.3.7-1.3 1.5-2.3 1.7-1 .2-2.5.9-3.3 1.7-.7.8-1.9 1.4-2.7 1.4-.7 0-1.5.7-1.9 1.5-.3.8-1.4 1.5-2.5 1.5s-2.4.7-2.9 1.6c-.6 1-1.9 1.4-4.2 1.2-5-.5-5-2.6 0-2.4 3 0 4.4-.4 5.1-1.7.6-.9 1.9-1.7 2.9-1.7 1.1 0 2-.4 2-.9s1-1.3 2.2-1.7c1.2-.3 2.8-1.3 3.6-2 1.7-1.7 4.5-1.8 4-.2zm-371.6 3.2c.8.7 2.4 1.7 3.6 2 1.2.4 2.2 1.2 2.2 1.7 0 1.5-4 1-4.6-.5-.3-.8-1.4-1.6-2.5-1.9-1-.3-1.9-1-1.9-1.6 0-1.5 1.6-1.4 3.2.3zm93.6-.2c-.3.7-1.3 1.5-2.4 1.7-1 .2-2.3.9-2.7 1.7-.9 1.6-4.7 1.9-4.7.5 0-.5 1-1.3 2.2-1.7 1.2-.3 2.8-1.3 3.6-2 1.7-1.7 4.5-1.8 4-.2zM427 418c.8.5 1.2 1.2.9 1.5-.8.8-3.9-.5-3.9-1.6s1.1-1.1 3 .1zm-199.6 2.6c2.3.9 2 2.4-.4 2.4-1.1 0-2-.7-2-1.5 0-1.7.2-1.8 2.4-.9zm206 1c.9.8 3.2 1.6 5.1 1.7 4.6.3 5 2.1.5 2.5-2.2.2-3.8-.2-4.5-1.1-.6-.8-1.9-1.6-2.9-1.8-2.3-.5-3.4-2.9-1.3-2.9.9 0 2.3.7 3.1 1.6zm14.6-.1c0 .8-.6 1.5-1.4 1.5-2 0-2.9-1.7-1.4-2.3 2.2-.9 2.8-.7 2.8.8zm-278.3 3c-.5 1.6-7.7 1.9-7.7.3 0-.9 1.3-1.3 4-1.3 2.3 0 3.9.4 3.7 1zm68.8 0c0 1.2-5 1.9-7.1 1.1-.9-.3-1.3-1-1-1.4.7-1.2 8.1-.9 8.1.3zm-171 2.5c1.7 1 5.3 3.1 8 4.5 2.8 1.4 6.4 3.4 8 4.5 1.7 1.1 4 2.4 5.1 2.9 1.2.5 2.4 1.7 2.8 2.6 1.2 3.2.7 29-.6 30.8-1.2 1.6-6.4 4.8-13.3 8.3-1.6.8-4.3 2.3-6 3.4-6.5 4.2-7.6 4.4-13 1.5-10.9-5.7-11.1-6-16-17-1-2.2-2.2-4.8-2.6-5.7-2.4-4.9-3.9-10.9-3.9-16 0-5.6.1-5.9 3.8-8.2 3.9-2.5 11.4-6.9 14.7-8.6 1.1-.6 3.4-1.9 5-2.9 3.7-2.4 4.3-2.4 8-.1zm545.1-.4c1.6.8 4.3 2.4 5.9 3.4 1.7 1 5.3 3.1 8 4.6 10.1 5.4 10.5 5.9 10.5 12.2 0 5.1-1.5 11.1-3.9 16-.4.9-1.6 3.5-2.6 5.7-4.9 11-5.1 11.3-16 17-5.4 2.9-6.5 2.7-13-1.5-1.6-1.1-4.3-2.6-6-3.4-6.9-3.5-12.1-6.7-13.2-8.3-1.4-1.8-1.9-27.6-.7-30.8.4-.9 1.6-2.1 2.8-2.6 1.1-.5 3.5-1.8 5.1-2.9 1.7-1.1 5.3-3.1 8-4.5 2.8-1.4 6.4-3.5 8-4.5 3.8-2.3 3.6-2.3 7.1-.4zm-480.2 1.9c.3.8 1.2 1.2 2 .9 1.2-.5 1.4.1 1 2.8-.4 2.4-.1 3.8 1 4.7.9.7 1.6 2.1 1.6 3.1s.7 2 1.5 2.4c.8.3 1.5 1.6 1.5 2.9 0 1.4.7 3 1.5 3.7.8.7 1.5 1.9 1.5 2.7 0 .7.7 1.6 1.5 1.9.8.4 1.5 1.3 1.5 2.1s1.3 3.2 2.8 5.2c1.6 2 3.2 4.5 3.6 5.6.7 1.9.8 1.9 1.7.2.6-.9.7-2.2.3-2.8-.3-.6-.7-5.5-.9-11-.2-6-.8-10.5-1.5-11.4-1.1-1.3-.8-1.5 1.4-1.5h2.7l-.2 16.9-.2 17-2.8 2c-1.6 1.2-3 2.1-3.3 2.1-.2 0-4.3 2.3-9 5.1-9.5 5.5-9.9 5.6-17.6 1-2.5-1.5-5.2-3-6-3.4-.8-.4-2.8-1.6-4.5-2.7-1.6-1.1-3.7-2.3-4.5-2.6-4.8-2.2-5-2.9-5-19V441l3.8-2.3c6-3.8 12.5-7.6 14.9-8.6 1.1-.5 2.4-1.5 2.8-2 1-1.6 6.2-1.3 6.9.4zm413.6.5c.6 1.1 1.7 2 2.5 2s1.5.7 1.5 1.6c0 1-.5 1.4-1.5 1-1.4-.5-1.6 2.3-1.5 23.7.1 13.9-.3 25.3-.9 26.8-1.8 4.8-5.2 4.5-14.7-1.1-4.7-2.7-8.8-5-9-5-.3 0-1.7-.9-3.3-2.1l-2.8-2-.2-17-.2-16.9h2.4c1.4 0 2.7-.7 3.1-1.5.6-1.6 4.6-2.1 4.6-.6 0 .5-.9 1.3-2.1 1.6-4.4 1.4-5.8 3.6-5.2 8 .3 2.2 0 7.4-.6 11.5-.8 4.9-.8 7.7-.2 8.3.7.7 1.3.2 2-1.4.5-1.3 2.1-3.7 3.5-5.2s2.6-3.7 2.6-4.8c0-1 .4-1.9.9-1.9 1 0 5.1-7.9 5.1-9.8 0-.7.7-1.5 1.5-1.8.8-.4 1.5-1.4 1.5-2.4s.7-2.3 1.5-3c.8-.7 1.5-2.1 1.5-3.2 0-1.7-.5-1.9-3.2-1.3l-3.3.6 2.8-1.6c1.5-.9 2.7-2.1 2.7-2.7 0-.7.5-.6 1.5.2 1.2 1 1.6.9 2.1-.4.9-2.2 4.1-2 5.4.4zm-343.2-.1c.9.5.2 1-2.4 1.4-4.1.7-5 .4-3.9-1.2.7-1.3 4.5-1.4 6.3-.2zm68.6 0c.3.5-1 1.1-3 1.3-3.4.4-5-.3-3.7-1.6 1-.9 6.1-.7 6.7.3zm137 0c.3.5-.9 1.1-2.7 1.4-3.6.5-5 0-4.2-1.4.8-1.2 6.2-1.2 6.9 0zm68.1.2c1.1 1.7-.2 2.2-4.1 1.4-2.8-.5-3.4-.9-2.3-1.6 1.9-1.2 5.6-1.1 6.4.2zM140 432c.8.5 1.1 1.2.8 1.6-1 .9-3.8-.3-3.8-1.6 0-1.2 1-1.3 3 0zm55 0c0 1.2-2.8 2.5-3.6 1.7-.9-.9.6-2.7 2.2-2.7.8 0 1.4.5 1.4 1zm13.9-.1c.9.6 1 1 .2 1.6-1.6.9-4.4-.2-3.6-1.5.8-1.2 1.6-1.2 3.4-.1zm54.1 0c0 1-3 2.4-3.7 1.7-.3-.3-.2-.9.2-1.5.8-1.3 3.5-1.5 3.5-.2zm14.1.6c-.1 1.5-2.4 1.2-2.9-.3-.3-.9.2-1.3 1.2-1 1 .1 1.7.7 1.7 1.3zM399 432c0 .6-.8 1.4-1.7 1.7-1 .4-2.4 1.3-3.1 2-.7.7-1.9 1.3-2.7 1.3-.7 0-1.5.7-1.9 1.5-.7 1.8-5 2.1-4.4.2.3-.6 1.3-1.4 2.4-1.6 1-.2 2.3-.9 2.7-1.7.4-.8 1.6-1.4 2.6-1.4 1.1 0 2.1-.7 2.5-1.5.6-1.7 3.6-2.1 3.6-.5zm14.8.8c.3.9-.2 1.3-1.4 1-.9-.1-1.9-.9-2.2-1.6-.3-.9.2-1.3 1.4-1 .9.1 1.9.9 2.2 1.6zm54.2-.8c0 1.2-2.8 2.5-3.6 1.7-.9-.9.6-2.7 2.2-2.7.8 0 1.4.5 1.4 1zm13.8.8c.3.9-.2 1.3-1.4 1-.9-.1-1.9-.9-2.2-1.6-.3-.9.2-1.3 1.4-1 .9.1 1.9.9 2.2 1.6zm-336.3 2.3c.4.6.5 1.2.2 1.5-.7.7-3.7-.7-3.7-1.7 0-1.3 2.7-1.1 3.5.2zm43.5-.2c0 1.2-2 2.5-2.7 1.8-.7-.7.6-2.7 1.8-2.7.5 0 .9.4.9.9zm25.7.5c.4.8 1.7 1.5 2.7 1.7 1.1.2 2.1 1 2.4 1.6.5 1.8-3.7 1.7-4.4-.1-.3-.8-1.4-1.6-2.5-1.9-1-.3-1.9-1-1.9-1.6 0-1.6 2.8-1.4 3.7.3zm43.3-.5c0 1.4-1.8 2.3-3 1.6-.6-.4-.8-1.1-.5-1.6.8-1.2 3.5-1.2 3.5 0zm24.7.5c.4.8 1.7 1.5 2.7 1.7 1.1.2 2.1 1 2.4 1.6.6 1.9-3.7 1.6-4.4-.2-.4-.8-1.4-1.5-2.4-1.5-2 0-3.3-1.3-2.3-2.4 1.1-1.1 3.2-.7 4 .8zm136.1.4c.3.9-.2 1.3-1.4 1-.9-.1-1.9-.9-2.2-1.6-.3-.9.2-1.3 1.4-1 .9.1 1.9.9 2.2 1.6zm43.2-.8c0 .6-.8 1.4-1.7 1.7-1 .4-2.3 1.3-2.9 2.2-.7.8-1.8 1.2-2.8.8-2.1-.8-1.2-2.7 1.4-2.7 1 0 2-.7 2.4-1.5.6-1.7 3.6-2.1 3.6-.5zm24.8.9c.3.8-.1 1.2-.9.9-.7-.2-1.5-1-1.7-1.7-.3-.8.1-1.2.9-.9.7.2 1.5 1 1.7 1.7zm43.7-.9c.3.6-.1 1.3-1 1.6-1.9.8-3 0-2-1.5.8-1.4 2.2-1.4 3-.1zm25.5 1c0 1.3-1.1 1.3-3 0-1.2-.8-1.1-1 .8-1 1.2 0 2.2.4 2.2 1zm-404.5 1.9c.3.5.1 1.2-.4 1.5-1.2.8-4.1-.3-4.1-1.5s3.7-1.2 4.5 0zm33.3.3c-.3.7-1.3 1.5-2.3 1.7-1 .1-2.7 1.1-3.8 2.1-1.7 1.7-1.9 3.2-1.9 15.1.1 11 .3 13.4 1.6 14.1 2 1.1 2.1 2.8.3 2.8-3.5 0-4.3-3.2-4.1-17.8.1-14.5.5-16.1 4-16.2.7 0 1.4-.7 1.8-1.5.7-1.8 5-2.1 4.4-.3zm68 0c-.7 1.9-3.8 2.2-3.8.4 0-1 .9-1.6 2.1-1.6 1.2 0 1.9.5 1.7 1.2zm171.5.2c.3.8 1.6 1.6 2.9 1.8 2.3.3 2.3.5 2.6 15.5.2 12.7 0 15.4-1.3 16.7-1.8 1.8-4.5 2.1-4.5.6 0-.5.7-1.3 1.6-1.8 1.2-.7 1.5-3.3 1.7-14.4.1-14.3-.4-16.1-4.8-16.9-1-.2-2-1-2.3-1.7-.5-1.7 3.5-1.5 4.1.2zm68.3.1c.4.8 1.1 1.5 1.8 1.5 3.5.1 4 1.7 4.2 16.2.1 11.6-.1 14.6-1.4 16-1.6 1.9-4.2 2.4-4.2.9 0-.5.7-1.1 1.5-1.5 1.2-.4 1.5-3 1.5-14.7 0-15.3-.5-16.8-5.7-16.9-1.4 0-2.3-.6-2.3-1.5 0-.8.9-1.5 2-1.5s2.3.7 2.6 1.5zm73.2.5 3.2 2v15.2c0 8.4-.4 15.8-.8 16.4-1.8 2.9-13.2 5.8-13.2 3.4 0-.6.9-1 2-1 1.9 0 2-.7 2-19 0-21.2 0-21.1 6.8-17zm-341 2.2c.6.8 1.1 7.3 1.1 15.2.1 11.7-.1 14.2-1.5 15.7-1 1.1-2.5 1.9-3.6 1.9-1 0-1.8.4-1.8.9s-1 1.3-2.2 1.7c-1.2.3-2.8 1.3-3.6 2-1.6 1.6-4.2 1.9-4.2.4 0-.5 1.1-1.2 2.4-1.6 1.4-.3 2.7-1.2 3-2 .3-.8 1.5-1.4 2.6-1.4s2-.5 2-1c0-.6.6-1 1.4-1 .8 0 1.8-.6 2.2-1.2 1.1-1.8.5-28.2-.6-28.6-.6-.2-1-.8-1-1.3 0-1.3 2.6-1.1 3.8.3zm23.2-.3c0 .5-.5 1.1-1.1 1.3-.7.2-1.1 4.9-1 14.3.1 11.7.4 14.2 1.8 15.2 2.4 1.8.8 2.8-2.2 1.5L243 472v-15.3c0-8.5.3-15.7.7-16 1-1 4.3-.8 4.3.2zm44.8.3c.8.8 1.2 5.6 1.2 15.2-.1 14.9-.8 17.6-4.8 17.6-1.1 0-2.2.7-2.6 1.5-.6 1.7-4.6 2.1-4.6.5 0-.6.8-1.3 1.8-1.6.9-.3 3.1-1.3 4.8-2.1l3.1-1.6.1-13.8c.1-11.1-.2-13.8-1.4-14.3-.8-.3-1.4-1-1.4-1.6 0-1.4 2.3-1.3 3.8.2zm91.2-.2c0 .5-.6 1.3-1.4 1.7-1.1.6-1.5 3.6-1.6 12.8-.2 15.7-.2 15.5 1.4 15.5.8 0 2.1.6 2.8 1.4.8.8 2.3 1.5 3.3 1.7 1 .2 2 1 2.3 1.6.6 1.9-3.7 1.6-4.4-.2-.4-.8-1.7-1.5-3-1.5-1.5 0-2.4-.6-2.4-1.5 0-.8-.4-1.5-1-1.5-1.5 0-1.3-28.3.2-29.8 1.4-1.4 3.8-1.6 3.8-.2zm68 0c0 .5-.4 1-1 1s-1 5.7-1 15c0 12.7.2 15 1.5 15 .8 0 1.5.4 1.5 1 0 1.5-2.1 1.2-4.2-.7-1.6-1.4-1.8-3.3-1.8-15.8 0-14.1.5-16.5 3.7-16.5.7 0 1.3.4 1.3 1zm-132.6 5.6c3.1 1.2 1.6 2.4-2.9 2.4-3.3 0-4.5-.4-4.5-1.5 0-1.6 4.3-2.1 7.4-.9zm41.6.9c0 1.1-1.2 1.5-4.5 1.5-4.2 0-5.4-.7-3.8-2.3.3-.4 2.4-.7 4.5-.7 2.7 0 3.8.4 3.8 1.5zm-14.5 2.5c.4.6-3 1-9.4 1-6.1 0-10.1-.4-10.1-1s3.8-1 9.4-1c5.3 0 9.8.4 10.1 1zm-30.8 21.7c2.1 1.6.8 3.1-1.5 1.7-1.4-.9-1.7-2.7-1.8-9 0-11.7 1.1-14.4 1.4-3.4.2 7.4.6 9.8 1.9 10.7zm44.8-7.8c0 6.7-.4 8.6-1.7 9.5-.9.6-2.1.7-2.5.2-.4-.4 0-1.2 1-1.7 1.4-.8 1.7-2.6 1.8-10.7 0-5.3.4-8.8.8-7.7.4 1.1.7 5.8.6 10.4zm-174.3 11.5c.8.7 2.4 1.7 3.7 2.1 1.4.4 1.9 1.1 1.4 1.6-1.1 1.1-4.3.2-4.3-1.2 0-.5-1.1-.9-2.4-.9-2.6 0-4-1.2-2.9-2.4 1-1 3.1-.7 4.5.8zm68.1.1c-.4 1.5-3.6 1.2-4.1-.3-.3-.9.3-1.3 1.9-1 1.3.1 2.3.7 2.2 1.3zm68.1 0c.8.8 2.2 1.5 3 1.5.9 0 1.6.7 1.6 1.5s-.7 1.5-1.5 1.5c-.9 0-1.8-.7-2.1-1.5-.4-.8-1.7-1.5-3-1.5-1.5 0-2.4-.6-2.4-1.5 0-.8.6-1.5 1.4-1.5.8 0 2.1.7 3 1.5zm32.6 0c0 .9-.9 1.5-2.4 1.5-1.3 0-2.6.7-3 1.5-.6 1.7-3.6 2.1-3.6.5 0-.6.8-1.4 1.8-1.7.9-.4 2.1-1.2 2.5-2 1.1-1.8 4.7-1.7 4.7.2zm68-.6c0 1.5-1.9 2.3-3.8 1.6-1.4-.5-1.4-.7-.2-1.5 1.9-1.2 4-1.3 4-.1zm35.5.2c.4.5 1.8 1.4 3.1 1.9s2.4 1.4 2.4 2c0 1.5-2.6 1.2-4.2-.4-.8-.8-2.3-1.5-3.3-1.7-2.6-.5-3.1-2.9-.6-2.9 1.1 0 2.3.5 2.6 1.1zm32.6.4c0 .5-1 1.2-2.2 1.3-1.2.2-2.9 1-3.6 1.8-.8.8-1.9 1.4-2.4 1.4-1.6 0-1-2 .9-2.7.9-.4 2.3-1.3 3.1-2 1.5-1.5 4.2-1.4 4.2.2zm-232.2 2.4c.9.6 1 1 .2 1.6-1.5.8-4.1-.1-4.1-1.5 0-1.2 2-1.3 3.9-.1zm22.1.1c0 1.2-2.8 2.5-3.6 1.7-.9-.9.6-2.7 2.2-2.7.8 0 1.4.5 1.4 1zm114.8.8c.3.9-.2 1.3-1.4 1-.9-.1-1.9-.9-2.2-1.6-.3-.9.2-1.3 1.4-1 .9.1 1.9.9 2.2 1.6zm22-.6c-.3.7-1.3 1.5-2.4 1.7-1 .2-2.3.9-2.7 1.7-.9 1.6-3.7 1.9-3.7.4 0-.6.8-1.4 1.8-1.7.9-.4 2.3-1.3 3-2 1.7-1.7 4.5-1.7 4-.1zm135.4 1c-.9.9-1.5.9-2.4 0-.9-.9-.7-1.2 1.2-1.2s2.1.3 1.2 1.2zm-356.6 2.2c.3.8 1.9 1.6 3.5 2 1.7.3 2.8 1 2.4 1.6-.9 1.5-4.5 1.2-5.1-.4-.3-.8-1.6-1.7-3-2-1.3-.4-2.4-1.1-2.4-1.6 0-1.5 4-1.2 4.6.4zm11.4.1c0 .8-.9 1.5-2 1.5-2 0-2.6-1.1-1.3-2.3 1.2-1.3 3.3-.7 3.3.8zm55.5-.4c1 1.5-.1 2.3-2 1.5-.9-.3-1.3-1-1-1.6.8-1.3 2.2-1.3 3 .1zm12 1c-.8 1.2-3.5 1.2-3.5 0 0-1.1 2.2-2 3.3-1.4.4.2.5.9.2 1.4zm56.4-1.2c.8.5.9 1.1.3 1.5-1.4.8-4.3-.4-3.6-1.5.7-1.1 1.5-1.1 3.3 0zm12.1 0c0 1.4-1.8 2.3-3 1.6-.6-.4-.8-1.1-.5-1.6.8-1.2 3.5-1.2 3.5 0zm56.5.2c.4.6.5 1.2.2 1.5-.7.7-3.7-.7-3.7-1.7 0-1.3 2.7-1.1 3.5.2zm67.9-.5c2.5.9 1.9 2.4-.9 2.4-1.6 0-2.5-.6-2.5-1.5 0-1.6.9-1.9 3.4-.9zm12.6.3c0 1.5-1.9 2.3-3.8 1.6-1.4-.5-1.4-.7-.2-1.5 1.9-1.2 4-1.3 4-.1zm-210.5 3.2c1.1 1.6-.2 2.2-3.2 1.5-2.1-.6-2.4-.9-1.2-1.7 1.9-1.2 3.6-1.1 4.4.2zm69.3.1c-.3.7-1.7 1.3-3.3 1.3-1.6 0-3-.6-3.2-1.3-.3-.8.7-1.2 3.2-1.2s3.5.4 3.3 1.2zm66.6-.6c2.2.9 1 2.4-2 2.4-1.5 0-2.4-.6-2.4-1.5 0-1.6 1.7-1.9 4.4-.9zm69.1.4c.8 1.3-2 2.4-4.1 1.6-2-.8-.9-2.6 1.6-2.6 1 0 2.2.5 2.5 1zm-375 1.1c.4.5 1.7 1.5 2.8 2 1.2.5 3.1 1.5 4.2 2.2 1.2.7 5.6 3.2 9.8 5.6l7.7 4.5-.2 16.4-.3 16.4-4 2.4c-2.2 1.3-4.9 2.9-6 3.4-1.1.6-2.9 1.6-4 2.3-12.5 7.4-14.2 8-16.5 5.2-.7-.8-1.8-1.5-2.4-1.5-2.3-.1-9.1-7.6-17.2-19-3.8-5.3-3.9-5.8-4.2-14.9-.4-8.9-.3-9.5 1.9-11.3 1.3-1 3.3-2.3 4.4-2.9 1.1-.5 4.3-2.3 7-4 2.8-1.6 6.4-3.6 8.2-4.4 1.7-.8 3.4-1.9 3.8-2.5.8-1.3 4.2-1.3 5 .1zm69.4 2.6c2.5 2.1 5.4 4.6 6.4 5.6s2.5 1.6 3.4 1.3c1.1-.5 1.4-.2.9 1.1-.5 1.2 1.2 3.5 6.4 8.5l7 6.7v9.9c0 11.1 0 11.1-8.5 15.7-2.7 1.4-6.3 3.5-8 4.6-1.6 1-4 2.3-5.2 2.8-1.1.5-2.4 1.5-2.8 2-.8 1.4-5.8 1.4-7.2 0-1.1-1.1-3.6-2.6-7.8-4.9-1.1-.6-3.3-1.9-5-3-1.6-1.1-4.1-2.5-5.5-3.1-5.9-2.5-6-3-6-19.4v-15.1l3-2.2c1.6-1.2 3.1-2.2 3.4-2.2.2 0 3.9-2 8-4.5 4.2-2.5 8-4.5 8.5-4.5s1.4-.7 2.1-1.5c1.7-2 1.7-2 6.9 2.2zm340.1-2.2c.7.8 1.6 1.5 2.1 1.5s4.3 2 8.5 4.5c4.1 2.5 7.8 4.5 8 4.5.3 0 1.8 1 3.4 2.2l3 2.2v15.1c0 16.4-.1 16.9-6 19.4-1.4.6-3.8 2-5.5 3.1-1.6 1.1-3.9 2.4-5 3-4.2 2.3-6.7 3.8-7.8 4.9-2.2 2.2-5.5 1.1-15.2-4.9-1.6-1-5.2-3.1-8-4.5-8.4-4.6-8.5-4.7-8.5-14.7 0-4.9.5-9.9 1.1-11.1.7-1.2 4.2-5 7.8-8.4 3.6-3.4 6-6.2 5.4-6.3-.7 0-1.3-.4-1.3-1 0-.5.7-.7 1.6-.3.9.3 1.9.1 2.3-.4.8-1.4 11.4-10.3 12.2-10.3.4 0 1.2.7 1.9 1.5zm67.5-.5c.4.6 2.1 1.7 3.8 2.5 1.8.8 5.5 2.8 8.2 4.4 2.8 1.7 5.9 3.5 7 4 1.1.6 3.1 1.9 4.4 2.9 2.2 1.8 2.3 2.4 1.9 11.3-.3 9.1-.4 9.6-4.2 14.9-8.1 11.4-14.9 18.9-17.2 19-.6 0-1.7.7-2.4 1.5-2.2 2.7-5.9 1.7-14.5-4-6.3-4.2-6-3.1-5.7-26 .3-22.3.5-23.2 5.7-25.7 3.3-1.5 6.6-3.5 7.8-4.7 1.4-1.4 4.4-1.4 5.2-.1zM235 486.9c0 .5 1 1.1 2.3 1.3 1.2.2 2.1.7 1.9 1.3-.4 1.2-3.5.7-4.4-.8-.4-.7-1.2-.4-2.3.6-.9 1-2.1 1.7-2.7 1.7-.6 0-1.6.7-2.3 1.7-.8 1.1-1.8 1.4-3.1.9-1.8-.8-1.7-.9.6-1.9 1.4-.6 2.9-1.7 3.3-2.4.4-.7 1.7-1.3 2.7-1.3 1.1 0 2-.5 2-1 0-.6.5-1 1-1 .6 0 1 .4 1 .9zm205 .1c0 .5.9 1 2 1 1 0 2.3.6 2.7 1.3.4.7 1.9 1.8 3.3 2.4 2.3 1 2.4 1.1.6 1.9-1.3.5-2.3.2-3.1-.9-.7-1-1.7-1.7-2.2-1.7-1.1 0-5.3-3.4-5.3-4.4 0-.3.5-.6 1-.6.6 0 1 .4 1 1zm-140.2 2.2c-.6 1.8-2.8 2.1-2.8.4 0-.9.7-1.6 1.6-1.6.9 0 1.4.5 1.2 1.2zm8 .6c.3.9-.2 1.3-1.4 1-.9-.1-1.9-.9-2.2-1.6-.3-.9.2-1.3 1.4-1 .9.1 1.9.9 2.2 1.6zm61.2-.8c0 1.2-2.8 2.5-3.6 1.7-.9-.9.6-2.7 2.2-2.7.8 0 1.4.5 1.4 1zm7 .6c0 1.7-2.2 1.4-2.8-.4-.2-.7.3-1.2 1.2-1.2.9 0 1.6.7 1.6 1.6zm61-.6c0 1.2-2.8 2.5-3.6 1.7-.9-.9.6-2.7 2.2-2.7.8 0 1.4.5 1.4 1zm-192.2 3.8c.3.9-.2 1.3-1.4 1-.9-.1-1.9-.9-2.2-1.6-.3-.9.2-1.3 1.4-1 .9.1 1.9.9 2.2 1.6zm51.2-.8c0 .5-1.1 1.2-2.5 1.6-1.4.3-2.5 1-2.5 1.5s-1.2.9-2.7.8h-2.8l2.5-1.2c1.4-.6 2.9-1.7 3.3-2.4.9-1.5 4.7-1.8 4.7-.3zm17.4.5c.3.8 1.5 1.5 2.6 1.5s2.3.6 2.6 1.4c.3.8 1.6 1.7 3 2 1.3.4 2.4 1.1 2.4 1.6 0 .6.9 1 2 1 1.9 0 2 .7 2 15.5 0 12.6-.3 15.5-1.4 15.5-.8 0-1.6.7-2 1.5-.3.8-1.5 1.5-2.6 1.5s-2.3.7-2.6 1.5c-.4.8-1.4 1.5-2.4 1.5s-2.3.7-3 1.5c-1.4 1.7-4 2-4 .5 0-.6.8-1.4 1.8-1.7.9-.4 2.1-1.2 2.5-2 .4-.7 1.9-1.3 3.2-1.3 1.4 0 2.5-.4 2.5-.9s1.1-1.2 2.4-1.5c2.5-.6 2.5-.7 2.8-14.4.2-7.5 0-14.4-.4-15.3-.4-.9-1.9-2-3.3-2.3-1.4-.4-2.5-1.1-2.5-1.6 0-.6-.6-1-1.4-1-.8 0-2.1-.6-2.8-1.4-.8-.7-2.4-1.7-3.6-2-1.2-.4-2-1.2-1.7-1.7.9-1.4 3.2-1.1 3.9.6zm50-.6c.3.5-.1 1.2-1 1.5-2.2.9-2.4.8-2.4-.9 0-1.6 2.5-2.1 3.4-.6zm18.3.4c.4.7 1.9 1.8 3.3 2.4l2.5 1.2h-2.7c-1.6.1-2.8-.3-2.8-.8s-1-1.1-2.2-1.3c-1.2-.2-2.3-.9-2.6-1.6-.5-1.6 3.5-1.6 4.5.1zm50.3-.3c0 1.2-2.8 2.5-3.6 1.7-.9-.9.6-2.7 2.2-2.7.8 0 1.4.5 1.4 1zm-210 3.1c0 .6-.9 1.3-2 1.6-1.1.3-2 .9-2 1.3 0 .5-1.3 1.3-3 1.9-1.6.5-3 1.5-3 2 0 .6-.7 1.1-1.5 1.1s-1.5-.7-1.5-1.5.9-1.5 2-1.5 2-.7 2-1.5.8-1.5 1.9-1.5c1 0 2.4-.7 3.1-1.5 1.4-1.7 4-2 4-.4zm27.8.8c.3.8-.1 1.2-.9.9-.7-.2-1.5-1-1.7-1.7-.3-.8.1-1.2.9-.9.7.2 1.5 1 1.7 1.7zM359 495c0 .5-1.1 1.2-2.5 1.6-1.4.3-2.5 1-2.5 1.5s-1.2.9-2.7.8h-2.8l2.5-1.2c1.4-.6 2.9-1.7 3.3-2.4.9-1.5 4.7-1.8 4.7-.3zm67.4-.1c.3.5-.1 1.2-1 1.5-2.2.9-2.4.8-2.4-.9 0-1.6 2.5-2.1 3.4-.6zm28.6.6c.7.8 2.1 1.5 3.1 1.5 1.1 0 1.9.7 1.9 1.5 0 1.8-2.4 2-4.2.2-.7-.7-2.1-1.6-3-2-1-.3-1.8-1.1-1.8-1.7 0-1.5 2.6-1.2 4 .5zm-266.5 3.9c1.9 1.4 3.2 2.7 2.8 2.9-.5.3-2.4-.8-4.3-2.4-4.3-3.5-3.4-3.8 1.5-.5zm67.1-.9c.4.8 1.1 1.5 1.8 1.5.8 0 1.2 4.4 1.2 15.5 0 9.4-.3 15.4-.9 15.2-.5-.1-.9-5.7-.8-12.9.2-15-.2-17.4-3.5-18.2-1.3-.4-2.4-1.1-2.4-1.6 0-1.6 4-1.1 4.6.5zm29.4-.5c0 .6-.8 1.4-1.7 1.7-4 1.5-4.3 2.8-4.3 17.2 0 11.9-.2 14.1-1.5 14.1s-1.5-2.4-1.5-15.5c0-14.5.1-15.5 1.9-15.5 1 0 2.4-.7 3.1-1.5 1.4-1.7 4-2 4-.5zm106.8.8c.3.9-.2 1.3-1.4 1-.9-.1-1.9-.9-2.2-1.6-.3-.9.2-1.3 1.4-1 .9.1 1.9.9 2.2 1.6zm30.2-.9c0 .5-1 1.3-2.2 1.7-1.3.4-2.6 1.2-3 1.8-.4.6-.8 7.5-.8 15.3 0 7.9-.4 14.3-.8 14.3-.5 0-.8-7-.8-15.5.1-10.9.4-15.5 1.2-15.5.7 0 1.4-.7 1.8-1.5.6-1.6 4.6-2.1 4.6-.6zm-74 17.4v15.3l3.8 1.7c2.1.9 4.4 1.7 5 1.7.6 0 1.5.6 1.9 1.3.4.8 1.6 1.6 2.6 2 .9.3 1.7 1.1 1.7 1.7 0 1.5-2.6 1.2-4-.5-.7-.8-2.1-1.5-3.2-1.5-1 0-2.1-.7-2.4-1.5-.4-.8-1.5-1.5-2.5-1.5-1.1 0-2.2-.7-2.5-1.5-.4-.8-1.2-1.5-2-1.5-1.1 0-1.4-2.9-1.4-15.5 0-13.1.2-15.5 1.5-15.5s1.5 2.4 1.5 15.3zm49 .2c0 13.1-.2 15.5-1.5 15.5s-1.5-2.2-1.5-13.9c0-7.7-.3-14.6-.6-15.5-.4-1.2 0-1.6 1.5-1.6 2 0 2.1.4 2.1 15.5zm67-14c0 .8-.7 1.5-1.5 1.5s-1.5-.7-1.5-1.5.7-1.5 1.5-1.5 1.5.7 1.5 1.5zm21-.6c0 1.4-1.8 2.3-3.1 1.5-.8-.4-.7-.9.2-1.5 1.8-1.1 2.9-1.1 2.9 0zm67.5.8c-.4 1-.6 8-.5 15.5.1 11.7-.1 13.8-1.4 13.8-1.3 0-1.5-2.3-1.5-15.5 0-15 .1-15.5 2.1-15.5 1.5 0 1.8.4 1.3 1.7zm-89.5 9.2c0 1.1-.4 2.3-1 2.6-.6.4-1-.5-1-1.9s.5-2.6 1-2.6c.6 0 1 .9 1 1.9zM214 525c1.6 1.6 3.8 3 5 3 1.1 0 2 .4 2 .9 0 .8 6 4 10.3 5.4.9.4 1.7 1.1 1.7 1.7 0 .5.8 1 1.9 1 1 0 2.4.7 3.1 1.5.7.8 1.9 1.5 2.6 1.5 2.4 0 1.5 2.5-1.6 4.8-3.8 2.9-5.3 2.8-10.9-.6-2.5-1.6-5.3-3.1-6.1-3.5-.8-.4-2.8-1.6-4.5-2.7-1.6-1.1-3.7-2.3-4.5-2.7-4.9-2.2-7-4.8-7-8.3 0-2 .3-4 .7-4.3 1.4-1.5 4.5-.5 7.3 2.3zm252.4-1.4c1.9 4.9-.3 8.9-6.4 11.7-.8.4-2.8 1.6-4.5 2.7-1.6 1.1-3.7 2.3-4.5 2.7-.8.4-3.6 1.9-6.1 3.5-2.5 1.5-5.4 2.8-6.3 2.8-2.2 0-7.6-4-7.6-5.6 0-.7-.9-1.6-2.1-1.9-1.6-.5-1.8-1-.9-1.8.8-.9 1.5-.8 2.4.5 1.6 2.2 3 2.3 4.6.3.7-.8 2-1.5 3-1.5s2-.7 2.4-1.5c.3-.8 1.2-1.5 1.9-1.5.8 0 3.4-1.1 5.8-2.5 2.4-1.3 5.4-2.9 6.7-3.5 1.2-.5 2.2-1.4 2.2-2 0-.5.7-1 1.5-1 .9 0 1.8-.7 2.1-1.5.8-2 5-1.9 5.8.1zM256 532.5c0 .8-.8 1.5-1.9 1.5-1 0-2.4.7-3.1 1.5-1.4 1.7-4 2-4 .4 0-.6.9-1.3 2-1.6 1.1-.3 2-.9 2-1.3 0-.7 1.7-1.5 4.3-1.9.4 0 .7.6.7 1.4zm30 .6c2.2 1.2 4 2.5 4 3 0 1.5-4 1-4.6-.5-.3-.8-1.7-1.7-3-2-1.4-.4-2.2-1.1-1.9-1.6.8-1.3.8-1.3 5.5 1.1zm136-.1c.3.3 1.3.9 2.3 1.3.9.3 1.7 1.1 1.7 1.7 0 1.5-2.6 1.2-4-.5-.7-.8-2.1-1.5-3.1-1.5-1.1 0-1.9-.7-1.9-1.6 0-1.1.6-1.4 2.3-.8 1.2.4 2.4 1 2.7 1.4zm-31 .3c-1.4.6-2.9 1.7-3.3 2.4-.9 1.5-4.7 1.8-4.7.4s5.1-3.9 8-3.9l2.5-.1-2.5 1.2zm-145.6 4.6c.3.5-.1 1.1-.9 1.5-1.5.6-2.9-.7-1.8-1.8.9-.9 2.1-.8 2.7.3zM296 539c.3.4 1.5 1 2.8 1.4 1.2.4 2.2 1.2 2.2 1.7 0 1.4 2 1.1 3.6-.6 1.8-1.8 3.4-2 3.4-.4 0 .6-.9 1.3-2 1.6-1.1.3-2 .9-2 1.4 0 .5-.7.9-1.5.9s-1.5-.5-1.5-1c0-.6-.8-1-1.9-1-1 0-2.4-.7-3.1-1.5-.7-.8-2.1-1.5-3.1-1.5-1.1 0-1.9-.7-1.9-1.6 0-1.1.6-1.4 2.3-.8 1.2.4 2.4 1 2.7 1.4zm86-.5c0 .8-.8 1.5-1.9 1.5-1 0-2.4.7-3.1 1.5-1.4 1.7-4 2-4 .5 0-.6.8-1.4 1.8-1.7.9-.4 2.3-1.3 3-2 1.8-1.8 4.2-1.6 4.2.2zm-13.6 3c.8.8 1.9 1.5 2.5 1.5.6 0 1.1.4 1.1 1 0 .5-.7 1-1.5 1s-1.5-.4-1.5-.9-1.1-1.2-2.5-1.5c-1.4-.4-2.3-1.1-2-1.6.9-1.4 2.1-1.2 3.9.5zM144.5 550c1.7 1 5.2 3.1 8 4.6 2.7 1.5 5.5 3.4 6.2 4.3.8 1.1 1.2 6.2 1.3 15.9v14.3l-3.2 3c-1.8 1.6-3.8 2.9-4.4 2.9-.6 0-1.7.7-2.4 1.5s-1.8 1.5-2.5 1.5c-2 0-23.2-17.5-33.9-28.1-11.2-10.9-11.2-10.7-2.4-15.3 2.9-1.5 6.7-3.6 8.3-4.7 1.7-1 3.7-2.2 4.5-2.5.8-.4 2.2-1.3 3-1.9 3.5-2.9 7-2 17.5 4.5zm401.4-3.2c1.5 3.2 1.6 29.7.2 33.4-1.2 3.1-3.2 5-12.9 12.5-6.2 4.7-7.7 5.5-9 4.5-1-.7-2.6-1.6-3.7-2.1s-3.2-2-4.7-3.4l-2.8-2.6v-14.3c.1-9.7.5-14.8 1.3-15.9.7-.9 3.5-2.8 6.2-4.3 2.8-1.5 6.4-3.6 8-4.6 11.6-7.2 15.3-7.9 17.4-3.2zm-341.4-1.7c.4.5 1.7 1.5 2.8 2 1.2.5 3.6 1.8 5.2 2.8 1.7 1.1 5 3 7.4 4.2 8.1 4.1 8.1 4.2 8.1 19.6 0 15.3-.4 17.9-2.8 18.7-1 .3-2.4 1-3.2 1.5-3.8 2.6-14.9 8.9-18.3 10.6-4.3 2-3.7 2.2-16.5-5.3-4-2.3-7.5-4.2-7.8-4.2-.3 0-1.8-1-3.4-2.2l-3-2.2v-15.5c0-8.6.4-16.1.8-16.8.4-.6 1.9-1.7 3.2-2.3 1.4-.5 3.9-1.9 5.5-3 1.7-1.1 3.9-2.4 5-3 4.2-2.3 6.7-3.8 7.8-4.9 1.4-1.4 8.4-1.4 9.2 0zm273.2 0c1.1 1.1 3.6 2.6 7.8 4.9 1.1.6 3.4 1.9 5 3 1.7 1.1 4.5 2.6 6.3 3.4l3.2 1.5v32.7l-3 2.2c-1.6 1.2-3.1 2.2-3.4 2.2-.3 0-3.8 1.9-7.8 4.2-12.8 7.5-12.2 7.3-16.5 5.3-3.4-1.7-14.5-8-18.3-10.6-.8-.5-2.2-1.2-3.2-1.5-2.4-.8-2.8-3.4-2.8-18.7 0-15.4 0-15.5 8.1-19.6 2.4-1.2 5.8-3.1 7.4-4.2 1.7-1 4-2.3 5.2-2.8 1.1-.5 2.4-1.5 2.8-2 .8-1.4 7.8-1.4 9.2 0zm-206.9 1.6c.2.8-.5 1.3-1.7 1.3s-2.1-.6-2.1-1.6c0-1.8 3.1-1.5 3.8.3zm67.8-.2c.4.8 1.5 1.5 2.5 1.5 1.1 0 2.2.7 2.5 1.5.4.8 1.7 1.5 3 1.5 1.5 0 2.4.6 2.4 1.5 0 1.9-2.4 1.9-4.2.1-.8-.7-2.4-1.7-3.6-2-1.2-.4-2.2-1.2-2.2-1.7s-1.1-.9-2.5-.9-2.5.4-2.5.9-1 1.3-2.2 1.7c-1.2.3-2.8 1.3-3.6 2-1.8 1.8-4.2 1.8-4.2-.1 0-.9.9-1.5 2.4-1.5 1.3 0 2.6-.7 3-1.5.3-.8 1.4-1.5 2.5-1.5 1 0 2.1-.7 2.5-1.5.3-.8 1.2-1.5 2.1-1.5.9 0 1.8.7 2.1 1.5zm67.4 0c0 .8-.9 1.5-2 1.5-2 0-2.6-1.1-1.3-2.3 1.2-1.3 3.3-.7 3.3.8zm-138.2 4.1c1.2 1.3 2.7 1.5 6.9 1 3.3-.4 5.3-.2 5.3.4 0 .5-.4 1-1 1-.5 0-1 .4-1 1 0 .5 1.9 1 4.3 1.1 2.3 0 6.2 1 8.7 2.2l4.5 2.2v31.7l-5 2.9c-2.7 1.6-5.9 3.3-7 3.9-1.1.5-2.9 1.6-4 2.2-10 6.5-11.3 6.8-16 3.7-1.6-1-3.7-2.2-4.5-2.6-7.1-3.4-18-10.7-18-12.1-.5-29.6-.3-31.2 4.5-33.3 2.8-1.3 6-3.3 7.6-4.6 3.2-2.6 12.3-3 14.7-.7zm151.8.5c1.8 1.5 5 3.4 7.9 4.8 4.8 2.1 5 3.6 4.5 33.3 0 1.1-3 3.5-8.2 6.5-4.6 2.7-9.2 5.3-10.3 6-1.1.7-2.7 1.5-3.5 1.9-.8.4-2.2 1.3-3.1 2-1.6 1.4-3 .9-11.9-4.5-1.9-1.1-4.4-2.5-5.5-3.1-1.1-.6-4.2-2.3-7-3.9l-5-2.9v-31.7l4.5-2.2c2.5-1.2 6.4-2.2 8.8-2.2 2.3-.1 4.2-.6 4.2-1.1 0-.6-.4-1-1-1-.5 0-1-.5-1-1 0-.6 2-.8 5.3-.4 4.3.5 5.7.3 6.8-1 1.1-1.3 2.6-1.6 7.2-1.2 3.2.2 6.5 1 7.3 1.7zm133.9.9c.4.6-.5 1-1.9 1s-2.6-.5-2.6-1c0-.6.9-1 1.9-1 1.1 0 2.3.4 2.6 1zm7.9 3.2c4 1.1 7.6 3.4 7.6 4.8 0 1.2-7.3 8-8.7 8-.9 0-1.3-1.7-1.3-6 0-5.3-.2-6-2-6-1.1 0-2-.5-2-1 0-1.3 1.4-1.3 6.4.2zm-197.2 7.5c.2 1 .3 7.6.2 14.8-.3 12.1-.5 13.1-2.5 14.5-2.3 1.6-11.9 7.2-15.4 9-1.1.6-3.8 2.1-6 3.4l-3.9 2.4-3.6-2c-1.9-1.1-4.8-2.8-6.5-3.8-1.6-1-5.3-3.1-8.1-4.6-10-5.2-9.5-4.4-9.8-19-.1-7.1-.1-13.7.2-14.7.4-1.6 2.6-1.7 27.7-1.7 25.1 0 27.3.1 27.7 1.7zm189.2 10.1c-4.6 4.1-5.4 4.5-5.4 2.9 0-.8 1.5-2.4 3.2-3.5 3.7-2.4 5.1-2 2.2.6zm2.4 26.2c-.7 1.1-1.9 2-2.7 2-1.1 0-1-.5.5-1.9 2.5-2.6 3.7-2.6 2.2-.1zm-386.3 5c1.7 1.1 4.4 2.6 6 3.4 1.7.8 5.3 2.9 8 4.5 2.8 1.7 6 3.5 7.1 4 1.2.5 2.4 1.7 2.8 2.6.8 2.3.8 6.3-.2 6.9-.8.5-8.6-3.2-13.7-6.4-1.6-1.1-4.3-2.6-6-3.4-5.4-2.6-13-8.1-13-9.4 0-1.1 3.9-4 5.5-4 .3 0 1.9.8 3.5 1.8zm69.7.9c2.9 1.5 6.9 3.8 8.8 5 1.9 1.1 4.4 2.5 5.5 3.1 1.1.6 3.4 1.8 5 2.8l3 1.9.3 15.5c.3 17.2-.1 18.5-5.4 16.9-1.6-.5-5.1-1.6-7.9-2.4-2.7-.8-6.5-1.8-8.2-2.2-1.8-.4-3.5-1.1-3.8-1.6-.4-.5-1.5-.9-2.5-.9-1.1 0-3.4-.6-5.2-1.4-1.8-.8-5.3-2.2-7.8-3.1-2.5-.9-5.8-2.3-7.3-3.1-1.6-.8-3.5-1.4-4.2-1.4-.8 0-1.9-.9-2.5-1.9-1.1-2.2-1.3-12.1-.2-13.6.7-1.1 5-4 8.7-6.1 1.1-.6 4.3-2.3 7-3.8 2.8-1.5 6.4-3.6 8-4.6 1.7-1 3.1-1.9 3.2-1.9.2-.1 2.6 1.2 5.5 2.8zm67.6-.6c2 1.3 4.4 2.7 5.2 3 .8.4 2.9 1.6 4.5 2.7 1.7 1.1 3.7 2.3 4.5 2.7.8.3 3.2 1.7 5.3 3l3.7 2.3v15.3c0 8.3-.4 15.8-.9 16.5-.9 1.5-2.9 2.7-10.6 6.6-4.9 2.4-5.3 2.5-17 1.6-11.6-.8-17.5-2.1-20.4-4.4-.7-.5-2.3-1.5-3.5-2.1-2-1-2.1-1.8-2.4-17.5l-.2-16.5 6.2-3.5c3.5-1.9 7.2-4 8.3-4.7 1.1-.7 2.9-1.7 4-2.3 5.5-3 9-4.9 9.3-5 .1 0 1.9 1 4 2.3zm66.3-.8c1.9.9 4.8 2.4 6.4 3.5 1.7 1 5 3 7.5 4.3 2.5 1.4 6 3.3 7.8 4.3l3.2 1.9-.2 16.5c-.3 15.7-.4 16.5-2.4 17.5-1.2.6-2.8 1.6-3.5 2.1-2.9 2.3-8.8 3.6-20.4 4.4-11.7.9-12.1.8-17-1.6-7.7-3.9-9.7-5.1-10.6-6.6-.5-.7-.9-8.2-.9-16.5V618l3.8-2.3c2-1.3 4.4-2.7 5.2-3 .8-.4 2.9-1.6 4.5-2.7 1.7-1 4.9-2.9 7.3-4.2 2.4-1.2 4.6-2.6 4.8-3 .7-1 .6-1 4.5.7zm69.4.5c1.7 1 5.3 3.1 8 4.6 2.8 1.5 5.9 3.2 7 3.8 3.7 2.1 8 5 8.7 6.1 1.1 1.5.9 11.4-.2 13.6-.6 1-1.9 1.9-3 1.9-1 0-2.1.4-2.5 1-.3.5-2 1.4-3.8 1.9-1.8.5-5.7 1.9-8.7 3.1-3 1.2-6.8 2.5-8.5 3-1.6.4-4.1 1.2-5.5 1.8-1.4.5-5.2 1.7-8.5 2.7-3.3.9-7.3 2.1-8.9 2.6-5.3 1.6-5.7.4-5.4-16.9l.3-15.5 3-1.9c1.7-1 3.9-2.2 5-2.8 1.1-.6 3.6-2 5.5-3.1 5.6-3.4 13.5-7.8 14-7.8.3 0 1.9.9 3.5 1.9zm67.3-.4c1.8.8 3.2 1.8 3.2 2.1 0 .9-3.2 4.3-4.1 4.3-.4 0-3.1 1.6-6 3.6-3 2-6.7 4.3-8.4 5.1-1.6.8-5.5 2.7-8.4 4.3-6 3.1-7.1 3.1-7.1-.5 0-3.5 1-5.5 3.4-6.6 1.1-.5 4.4-2.3 7.1-4 2.8-1.6 6.4-3.7 8-4.5 2.2-1.1 7.9-4.4 9.1-5.3 0-.1 1.5.6 3.2 1.5zm41.2-.1c0 .8-.7 1.5-1.5 1.5-1.6 0-2-1.2-.8-2.3 1.1-1.2 2.3-.8 2.3.8z"/>
</svg>
